<svg xmlns="http://www.w3.org/2000/svg" xmlns:xlink="http://www.w3.org/1999/xlink" width="138" zoomAndPan="magnify" viewBox="0 0 103.5 36.000001" height="48" preserveAspectRatio="xMidYMid meet" version="1.0"><defs><g/><clipPath id="7eadf7e068"><path d="M 28.007812 10.214844 L 88.140625 10.214844 L 88.140625 20.722656 L 28.007812 20.722656 Z M 28.007812 10.214844 " clip-rule="nonzero"/></clipPath></defs><path fill="#ffffff" d="M 12.789062 8.027344 L 89.886719 8.027344 C 91.125 8.027344 92.070312 8.976562 92.070312 10.214844 L 92.070312 21.890625 C 92.070312 23.132812 91.125 24.082031 89.886719 24.082031 L 12.789062 24.082031 C 11.554688 24.082031 10.605469 23.132812 10.605469 21.890625 L 10.605469 10.214844 C 10.605469 8.976562 11.554688 8.027344 12.789062 8.027344 Z M 12.789062 8.027344 " fill-opacity="1" fill-rule="nonzero"/><path stroke-linecap="butt" transform="matrix(0.727341, 0, 0, 0.72973, 1.151793, 0.00000194595)" fill="none" stroke-linejoin="miter" d="M 15.999733 11.198493 L 121.998989 11.198493 C 123.497382 11.198493 124.802435 12.499274 124.802435 13.998117 L 124.802435 29.998262 C 124.802435 31.502457 123.497382 32.797886 121.998989 32.797886 L 15.999733 32.797886 C 14.501339 32.797886 13.201657 31.502457 13.201657 29.998262 L 13.201657 13.998117 C 13.201657 12.499274 14.501339 11.198493 15.999733 11.198493 Z M 15.999733 11.198493 " stroke="#eeeeee" stroke-width="0.4" stroke-opacity="1" stroke-miterlimit="4"/><path fill="#27d045" d="M 25.953125 16.054688 C 25.953125 16.382812 25.921875 16.710938 25.859375 17.035156 C 25.792969 17.359375 25.699219 17.675781 25.574219 17.980469 C 25.445312 18.285156 25.292969 18.578125 25.109375 18.851562 C 24.925781 19.125 24.71875 19.378906 24.484375 19.613281 C 24.25 19.847656 23.996094 20.058594 23.722656 20.242188 C 23.449219 20.425781 23.160156 20.578125 22.855469 20.707031 C 22.550781 20.832031 22.238281 20.929688 21.914062 20.992188 C 21.589844 21.058594 21.265625 21.089844 20.9375 21.089844 C 20.605469 21.089844 20.28125 21.058594 19.957031 20.992188 C 19.632812 20.929688 19.320312 20.832031 19.015625 20.707031 C 18.710938 20.578125 18.421875 20.425781 18.148438 20.242188 C 17.875 20.058594 17.621094 19.847656 17.386719 19.613281 C 17.152344 19.378906 16.945312 19.125 16.761719 18.851562 C 16.578125 18.578125 16.425781 18.285156 16.300781 17.980469 C 16.171875 17.675781 16.078125 17.359375 16.011719 17.035156 C 15.949219 16.710938 15.917969 16.382812 15.917969 16.054688 C 15.917969 15.722656 15.949219 15.394531 16.011719 15.070312 C 16.078125 14.746094 16.171875 14.433594 16.300781 14.128906 C 16.425781 13.820312 16.578125 13.53125 16.761719 13.257812 C 16.945312 12.980469 17.152344 12.726562 17.386719 12.492188 C 17.621094 12.261719 17.875 12.050781 18.148438 11.867188 C 18.421875 11.683594 18.710938 11.527344 19.015625 11.402344 C 19.320312 11.277344 19.632812 11.179688 19.957031 11.117188 C 20.28125 11.050781 20.605469 11.019531 20.9375 11.019531 C 21.265625 11.019531 21.589844 11.050781 21.914062 11.117188 C 22.238281 11.179688 22.550781 11.277344 22.855469 11.402344 C 23.160156 11.527344 23.449219 11.683594 23.722656 11.867188 C 23.996094 12.050781 24.25 12.261719 24.484375 12.492188 C 24.71875 12.726562 24.925781 12.980469 25.109375 13.257812 C 25.292969 13.53125 25.445312 13.820312 25.570312 14.128906 C 25.699219 14.433594 25.792969 14.746094 25.859375 15.070312 C 25.921875 15.394531 25.953125 15.722656 25.953125 16.054688 Z M 25.953125 16.054688 " fill-opacity="1" fill-rule="nonzero"/><path fill="#ffffff" d="M 20.9375 18.679688 C 19.480469 18.679688 18.316406 17.511719 18.316406 16.054688 C 18.316406 14.59375 19.480469 13.425781 20.9375 13.425781 C 22.390625 13.425781 23.554688 14.59375 23.554688 16.054688 C 23.554688 17.441406 22.464844 18.679688 20.9375 18.679688 Z M 20.9375 13.792969 C 19.699219 13.792969 18.679688 14.742188 18.679688 16.054688 C 18.679688 17.292969 19.625 18.316406 20.9375 18.316406 C 22.246094 18.316406 23.191406 17.367188 23.191406 16.054688 C 23.191406 14.742188 22.171875 13.792969 20.9375 13.792969 Z M 20.9375 13.792969 " fill-opacity="1" fill-rule="nonzero"/><path fill="#ffffff" d="M 18.679688 17.367188 L 18.316406 18.679688 L 19.699219 18.316406 L 19.773438 17.878906 L 18.828125 18.171875 L 19.042969 17.292969 L 18.679688 17.292969 Z M 18.679688 17.367188 " fill-opacity="1" fill-rule="nonzero"/><path fill="#27d045" d="M 18.898438 18.242188 L 19.191406 17.292969 L 19.917969 17.953125 Z M 18.898438 18.242188 " fill-opacity="1" fill-rule="nonzero"/><path fill="#ffffff" d="M 19.917969 14.8125 C 19.699219 14.960938 19.625 15.105469 19.625 15.324219 C 19.554688 15.617188 19.84375 15.980469 19.84375 15.980469 C 20.0625 16.273438 20.28125 16.566406 20.570312 16.855469 C 20.789062 17.074219 21.082031 17.222656 21.371094 17.292969 C 21.589844 17.367188 21.734375 17.367188 21.953125 17.367188 C 22.171875 17.292969 22.246094 17.222656 22.390625 17.148438 C 22.390625 17.074219 22.464844 17.003906 22.464844 16.929688 C 22.464844 16.855469 22.464844 16.785156 22.464844 16.710938 C 22.464844 16.636719 21.882812 16.347656 21.808594 16.417969 C 21.734375 16.417969 21.664062 16.566406 21.589844 16.636719 C 21.519531 16.710938 21.445312 16.785156 21.371094 16.785156 C 21.300781 16.785156 21.007812 16.636719 20.789062 16.417969 C 20.570312 16.273438 20.5 16.128906 20.425781 15.90625 C 20.425781 15.90625 20.5 15.835938 20.570312 15.761719 C 20.644531 15.6875 20.644531 15.617188 20.71875 15.542969 C 20.71875 15.46875 20.5 14.960938 20.425781 14.886719 C 20.136719 14.742188 19.988281 14.742188 19.917969 14.8125 Z M 19.917969 14.8125 " fill-opacity="1" fill-rule="nonzero"/><g fill="#353535" fill-opacity="1"><g transform="translate(28.96904, 18.452969)"><g><path d="M 1.421875 -0.171875 L 1.421875 0 L 0.0625 0 L 0.0625 -0.171875 L 0.53125 -0.25 L 1.9375 -4.1875 L 2.53125 -4.1875 L 4 -0.25 L 4.53125 -0.171875 L 4.53125 0 L 2.765625 0 L 2.765625 -0.171875 L 3.328125 -0.25 L 2.921875 -1.453125 L 1.28125 -1.453125 L 0.875 -0.25 Z M 2.09375 -3.734375 L 1.375 -1.71875 L 2.828125 -1.71875 Z M 2.09375 -3.734375 "/></g></g></g><g fill="#353535" fill-opacity="1"><g transform="translate(33.53226, 18.452969)"><g><path d="M 2.390625 0.0625 C 1.722656 0.0625 1.203125 -0.117188 0.828125 -0.484375 C 0.453125 -0.847656 0.265625 -1.363281 0.265625 -2.03125 C 0.265625 -2.738281 0.441406 -3.273438 0.796875 -3.640625 C 1.160156 -4.015625 1.695312 -4.203125 2.40625 -4.203125 C 2.832031 -4.203125 3.296875 -4.148438 3.796875 -4.046875 L 3.8125 -3.140625 L 3.609375 -3.140625 L 3.515625 -3.671875 C 3.367188 -3.765625 3.195312 -3.832031 3 -3.875 C 2.8125 -3.925781 2.617188 -3.953125 2.421875 -3.953125 C 1.898438 -3.953125 1.515625 -3.796875 1.265625 -3.484375 C 1.023438 -3.171875 0.90625 -2.6875 0.90625 -2.03125 C 0.90625 -1.425781 1.03125 -0.960938 1.28125 -0.640625 C 1.539062 -0.328125 1.910156 -0.171875 2.390625 -0.171875 C 2.628906 -0.171875 2.851562 -0.195312 3.0625 -0.25 C 3.269531 -0.3125 3.4375 -0.390625 3.5625 -0.484375 L 3.671875 -1.109375 L 3.875 -1.109375 L 3.859375 -0.140625 C 3.398438 -0.00390625 2.910156 0.0625 2.390625 0.0625 Z M 2.390625 0.0625 "/></g></g></g><g fill="#353535" fill-opacity="1"><g transform="translate(37.746836, 18.452969)"><g><path d="M 1.359375 -0.25 L 1.890625 -0.171875 L 1.890625 0 L 0.234375 0 L 0.234375 -0.171875 L 0.765625 -0.25 L 0.765625 -3.90625 L 0.234375 -3.984375 L 0.234375 -4.15625 L 1.890625 -4.15625 L 1.890625 -3.984375 L 1.359375 -3.90625 Z M 1.359375 -0.25 "/></g></g></g><g fill="#353535" fill-opacity="1"><g transform="translate(39.851039, 18.452969)"><g><path d="M 1.421875 -0.171875 L 1.421875 0 L 0.0625 0 L 0.0625 -0.171875 L 0.53125 -0.25 L 1.9375 -4.1875 L 2.53125 -4.1875 L 4 -0.25 L 4.53125 -0.171875 L 4.53125 0 L 2.765625 0 L 2.765625 -0.171875 L 3.328125 -0.25 L 2.921875 -1.453125 L 1.28125 -1.453125 L 0.875 -0.25 Z M 2.09375 -3.734375 L 1.375 -1.71875 L 2.828125 -1.71875 Z M 2.09375 -3.734375 "/></g></g></g><g fill="#353535" fill-opacity="1"><g transform="translate(44.414259, 18.452969)"><g><path d="M 1.359375 -0.25 L 1.890625 -0.171875 L 1.890625 0 L 0.234375 0 L 0.234375 -0.171875 L 0.765625 -0.25 L 0.765625 -3.90625 L 0.234375 -3.984375 L 0.234375 -4.15625 L 1.890625 -4.15625 L 1.890625 -3.984375 L 1.359375 -3.90625 Z M 1.359375 -0.25 "/></g></g></g><g fill="#353535" fill-opacity="1"><g transform="translate(46.518462, 18.452969)"><g/></g></g><g fill="#353535" fill-opacity="1"><g transform="translate(48.098156, 18.452969)"><g><path d="M 2.390625 0.0625 C 1.722656 0.0625 1.203125 -0.117188 0.828125 -0.484375 C 0.453125 -0.847656 0.265625 -1.363281 0.265625 -2.03125 C 0.265625 -2.738281 0.441406 -3.273438 0.796875 -3.640625 C 1.160156 -4.015625 1.695312 -4.203125 2.40625 -4.203125 C 2.832031 -4.203125 3.296875 -4.148438 3.796875 -4.046875 L 3.8125 -3.140625 L 3.609375 -3.140625 L 3.515625 -3.671875 C 3.367188 -3.765625 3.195312 -3.832031 3 -3.875 C 2.8125 -3.925781 2.617188 -3.953125 2.421875 -3.953125 C 1.898438 -3.953125 1.515625 -3.796875 1.265625 -3.484375 C 1.023438 -3.171875 0.90625 -2.6875 0.90625 -2.03125 C 0.90625 -1.425781 1.03125 -0.960938 1.28125 -0.640625 C 1.539062 -0.328125 1.910156 -0.171875 2.390625 -0.171875 C 2.628906 -0.171875 2.851562 -0.195312 3.0625 -0.25 C 3.269531 -0.3125 3.4375 -0.390625 3.5625 -0.484375 L 3.671875 -1.109375 L 3.875 -1.109375 L 3.859375 -0.140625 C 3.398438 -0.00390625 2.910156 0.0625 2.390625 0.0625 Z M 2.390625 0.0625 "/></g></g></g><g fill="#353535" fill-opacity="1"><g transform="translate(52.312733, 18.452969)"><g><path d="M 1.140625 -0.21875 L 1.625 -0.140625 L 1.625 0 L 0.125 0 L 0.125 -0.140625 L 0.625 -0.21875 L 0.625 -4.1875 L 0.125 -4.265625 L 0.125 -4.40625 L 1.140625 -4.40625 Z M 1.140625 -0.21875 "/></g></g></g><g fill="#353535" fill-opacity="1"><g transform="translate(54.068292, 18.452969)"><g><path d="M 0.96875 -0.828125 C 0.96875 -0.472656 1.132812 -0.296875 1.46875 -0.296875 C 1.71875 -0.296875 1.953125 -0.328125 2.171875 -0.390625 L 2.171875 -2.6875 L 1.734375 -2.765625 L 1.734375 -2.90625 L 2.6875 -2.90625 L 2.6875 -0.21875 L 3.0625 -0.140625 L 3.0625 0 L 2.203125 0 L 2.1875 -0.234375 C 2.039062 -0.148438 1.867188 -0.078125 1.671875 -0.015625 C 1.484375 0.0351562 1.328125 0.0625 1.203125 0.0625 C 0.703125 0.0625 0.453125 -0.222656 0.453125 -0.796875 L 0.453125 -2.6875 L 0.078125 -2.765625 L 0.078125 -2.90625 L 0.96875 -2.90625 Z M 0.96875 -0.828125 "/></g></g></g><g fill="#353535" fill-opacity="1"><g transform="translate(57.227682, 18.452969)"><g><path d="M 2.359375 -1.53125 C 2.359375 -1.914062 2.289062 -2.195312 2.15625 -2.375 C 2.03125 -2.5625 1.832031 -2.65625 1.5625 -2.65625 C 1.4375 -2.65625 1.3125 -2.644531 1.1875 -2.625 C 1.070312 -2.601562 0.988281 -2.582031 0.9375 -2.5625 L 0.9375 -0.25 C 1.113281 -0.21875 1.320312 -0.203125 1.5625 -0.203125 C 1.84375 -0.203125 2.046875 -0.3125 2.171875 -0.53125 C 2.296875 -0.757812 2.359375 -1.09375 2.359375 -1.53125 Z M 0.421875 -4.1875 L 0 -4.265625 L 0 -4.40625 L 0.9375 -4.40625 L 0.9375 -3.359375 C 0.9375 -3.242188 0.929688 -3.039062 0.921875 -2.75 C 1.128906 -2.90625 1.390625 -2.984375 1.703125 -2.984375 C 2.097656 -2.984375 2.398438 -2.863281 2.609375 -2.625 C 2.816406 -2.382812 2.921875 -2.019531 2.921875 -1.53125 C 2.921875 -1.007812 2.804688 -0.613281 2.578125 -0.34375 C 2.347656 -0.0703125 2.007812 0.0625 1.5625 0.0625 C 1.382812 0.0625 1.191406 0.0390625 0.984375 0 C 0.773438 -0.0390625 0.585938 -0.09375 0.421875 -0.15625 Z M 0.421875 -4.1875 "/></g></g></g><g fill="#353535" fill-opacity="1"><g transform="translate(60.387071, 18.452969)"><g><path d="M 0.796875 -1.46875 L 0.796875 -1.40625 C 0.796875 -1.125 0.828125 -0.90625 0.890625 -0.75 C 0.953125 -0.59375 1.050781 -0.472656 1.1875 -0.390625 C 1.320312 -0.304688 1.492188 -0.265625 1.703125 -0.265625 C 1.816406 -0.265625 1.945312 -0.269531 2.09375 -0.28125 C 2.25 -0.300781 2.375 -0.320312 2.46875 -0.34375 L 2.46875 -0.171875 C 2.375 -0.109375 2.238281 -0.0507812 2.0625 0 C 1.894531 0.0390625 1.722656 0.0625 1.546875 0.0625 C 1.097656 0.0625 0.769531 -0.0546875 0.5625 -0.296875 C 0.351562 -0.546875 0.25 -0.941406 0.25 -1.484375 C 0.25 -1.984375 0.351562 -2.359375 0.5625 -2.609375 C 0.78125 -2.859375 1.082031 -2.984375 1.46875 -2.984375 C 2.21875 -2.984375 2.59375 -2.5625 2.59375 -1.71875 L 2.59375 -1.46875 Z M 1.46875 -2.734375 C 1.257812 -2.734375 1.097656 -2.644531 0.984375 -2.46875 C 0.867188 -2.300781 0.8125 -2.050781 0.8125 -1.71875 L 2.046875 -1.71875 C 2.046875 -2.082031 2 -2.34375 1.90625 -2.5 C 1.8125 -2.65625 1.664062 -2.734375 1.46875 -2.734375 Z M 1.46875 -2.734375 "/></g></g></g><g fill="#353535" fill-opacity="1"><g transform="translate(63.191646, 18.452969)"><g/></g></g><g fill="#353535" fill-opacity="1"><g transform="translate(64.771341, 18.452969)"><g><path d="M 1.359375 -0.25 L 1.890625 -0.171875 L 1.890625 0 L 0.234375 0 L 0.234375 -0.171875 L 0.765625 -0.25 L 0.765625 -3.90625 L 0.234375 -3.984375 L 0.234375 -4.15625 L 1.890625 -4.15625 L 1.890625 -3.984375 L 1.359375 -3.90625 Z M 1.359375 -0.25 "/></g></g></g><g fill="#353535" fill-opacity="1"><g transform="translate(66.875544, 18.452969)"><g><path d="M 1 -2.671875 C 1.15625 -2.765625 1.320312 -2.835938 1.5 -2.890625 C 1.6875 -2.953125 1.835938 -2.984375 1.953125 -2.984375 C 2.203125 -2.984375 2.390625 -2.910156 2.515625 -2.765625 C 2.648438 -2.617188 2.71875 -2.40625 2.71875 -2.125 L 2.71875 -0.21875 L 3.0625 -0.140625 L 3.0625 0 L 1.8125 0 L 1.8125 -0.140625 L 2.203125 -0.21875 L 2.203125 -2.078125 C 2.203125 -2.242188 2.160156 -2.375 2.078125 -2.46875 C 1.992188 -2.570312 1.863281 -2.625 1.6875 -2.625 C 1.5 -2.625 1.269531 -2.59375 1 -2.53125 L 1 -0.21875 L 1.40625 -0.140625 L 1.40625 0 L 0.140625 0 L 0.140625 -0.140625 L 0.5 -0.21875 L 0.5 -2.6875 L 0.140625 -2.765625 L 0.140625 -2.90625 L 0.96875 -2.90625 Z M 1 -2.671875 "/></g></g></g><g fill="#353535" fill-opacity="1"><g transform="translate(70.034934, 18.452969)"><g><path d="M 1 -3.140625 C 1 -2.921875 0.992188 -2.765625 0.984375 -2.671875 C 1.128906 -2.753906 1.296875 -2.828125 1.484375 -2.890625 C 1.679688 -2.953125 1.84375 -2.984375 1.96875 -2.984375 C 2.21875 -2.984375 2.40625 -2.910156 2.53125 -2.765625 C 2.664062 -2.617188 2.734375 -2.40625 2.734375 -2.125 L 2.734375 -0.21875 L 3.078125 -0.140625 L 3.078125 0 L 1.828125 0 L 1.828125 -0.140625 L 2.21875 -0.21875 L 2.21875 -2.09375 C 2.21875 -2.445312 2.046875 -2.625 1.703125 -2.625 C 1.503906 -2.625 1.269531 -2.59375 1 -2.53125 L 1 -0.21875 L 1.40625 -0.140625 L 1.40625 0 L 0.125 0 L 0.125 -0.140625 L 0.5 -0.21875 L 0.5 -4.1875 L 0.0625 -4.265625 L 0.0625 -4.40625 L 1 -4.40625 Z M 1 -3.140625 "/></g></g></g><g fill="#353535" fill-opacity="1"><g transform="translate(73.194323, 18.452969)"><g><path d="M 1.4375 -2.984375 C 1.75 -2.984375 1.976562 -2.914062 2.125 -2.78125 C 2.28125 -2.65625 2.359375 -2.457031 2.359375 -2.1875 L 2.359375 -0.21875 L 2.71875 -0.140625 L 2.71875 0 L 1.921875 0 L 1.859375 -0.296875 C 1.628906 -0.0546875 1.332031 0.0625 0.96875 0.0625 C 0.46875 0.0625 0.21875 -0.226562 0.21875 -0.8125 C 0.21875 -1 0.253906 -1.15625 0.328125 -1.28125 C 0.410156 -1.414062 0.53125 -1.515625 0.6875 -1.578125 C 0.851562 -1.640625 1.09375 -1.675781 1.40625 -1.6875 L 1.84375 -1.703125 L 1.84375 -2.15625 C 1.84375 -2.351562 1.804688 -2.5 1.734375 -2.59375 C 1.660156 -2.6875 1.550781 -2.734375 1.40625 -2.734375 C 1.195312 -2.734375 1.003906 -2.6875 0.828125 -2.59375 L 0.734375 -2.234375 L 0.5625 -2.234375 L 0.5625 -2.875 C 0.894531 -2.945312 1.1875 -2.984375 1.4375 -2.984375 Z M 1.84375 -1.484375 L 1.4375 -1.46875 C 1.164062 -1.457031 0.976562 -1.40625 0.875 -1.3125 C 0.78125 -1.21875 0.734375 -1.054688 0.734375 -0.828125 C 0.734375 -0.460938 0.878906 -0.28125 1.171875 -0.28125 C 1.316406 -0.28125 1.4375 -0.296875 1.53125 -0.328125 C 1.632812 -0.359375 1.738281 -0.398438 1.84375 -0.453125 Z M 1.84375 -1.484375 "/></g></g></g><g fill="#353535" fill-opacity="1"><g transform="translate(75.998898, 18.452969)"><g><path d="M 0.46875 -2.6875 L 0.140625 -2.765625 L 0.140625 -2.90625 L 0.953125 -2.90625 L 0.96875 -2.734375 C 1.050781 -2.816406 1.164062 -2.878906 1.3125 -2.921875 C 1.457031 -2.960938 1.601562 -2.984375 1.75 -2.984375 C 2.125 -2.984375 2.410156 -2.851562 2.609375 -2.59375 C 2.816406 -2.34375 2.921875 -1.972656 2.921875 -1.484375 C 2.921875 -0.992188 2.804688 -0.613281 2.578125 -0.34375 C 2.359375 -0.0703125 2.039062 0.0625 1.625 0.0625 C 1.394531 0.0625 1.175781 0.0390625 0.96875 0 C 0.976562 0.144531 0.984375 0.257812 0.984375 0.34375 L 0.984375 1.125 L 1.484375 1.203125 L 1.484375 1.34375 L 0.109375 1.34375 L 0.109375 1.203125 L 0.46875 1.125 Z M 2.359375 -1.484375 C 2.359375 -1.878906 2.289062 -2.171875 2.15625 -2.359375 C 2.03125 -2.554688 1.835938 -2.65625 1.578125 -2.65625 C 1.335938 -2.65625 1.140625 -2.625 0.984375 -2.5625 L 0.984375 -0.234375 C 1.160156 -0.203125 1.359375 -0.1875 1.578125 -0.1875 C 2.097656 -0.1875 2.359375 -0.617188 2.359375 -1.484375 Z M 2.359375 -1.484375 "/></g></g></g><g fill="#353535" fill-opacity="1"><g transform="translate(79.158288, 18.452969)"><g><path d="M 1.171875 -3.859375 C 1.171875 -3.765625 1.132812 -3.6875 1.0625 -3.625 C 1 -3.5625 0.921875 -3.53125 0.828125 -3.53125 C 0.742188 -3.53125 0.664062 -3.5625 0.59375 -3.625 C 0.53125 -3.6875 0.5 -3.765625 0.5 -3.859375 C 0.5 -3.953125 0.53125 -4.03125 0.59375 -4.09375 C 0.664062 -4.164062 0.742188 -4.203125 0.828125 -4.203125 C 0.921875 -4.203125 1 -4.164062 1.0625 -4.09375 C 1.132812 -4.03125 1.171875 -3.953125 1.171875 -3.859375 Z M 1.140625 -0.21875 L 1.640625 -0.140625 L 1.640625 0 L 0.140625 0 L 0.140625 -0.140625 L 0.625 -0.21875 L 0.625 -2.6875 L 0.21875 -2.765625 L 0.21875 -2.90625 L 1.140625 -2.90625 Z M 1.140625 -0.21875 "/></g></g></g><g fill="#353535" fill-opacity="1"><g transform="translate(80.913847, 18.452969)"><g><path d="M 1 -2.671875 C 1.15625 -2.765625 1.320312 -2.835938 1.5 -2.890625 C 1.675781 -2.953125 1.828125 -2.984375 1.953125 -2.984375 C 2.097656 -2.984375 2.226562 -2.957031 2.34375 -2.90625 C 2.46875 -2.851562 2.5625 -2.769531 2.625 -2.65625 C 2.78125 -2.738281 2.960938 -2.8125 3.171875 -2.875 C 3.390625 -2.945312 3.566406 -2.984375 3.703125 -2.984375 C 4.203125 -2.984375 4.453125 -2.695312 4.453125 -2.125 L 4.453125 -0.21875 L 4.828125 -0.140625 L 4.828125 0 L 3.5 0 L 3.5 -0.140625 L 3.9375 -0.21875 L 3.9375 -2.078125 C 3.9375 -2.429688 3.769531 -2.609375 3.4375 -2.609375 C 3.382812 -2.609375 3.320312 -2.601562 3.25 -2.59375 C 3.1875 -2.582031 3.117188 -2.570312 3.046875 -2.5625 C 2.972656 -2.550781 2.898438 -2.539062 2.828125 -2.53125 C 2.765625 -2.519531 2.710938 -2.507812 2.671875 -2.5 C 2.710938 -2.382812 2.734375 -2.257812 2.734375 -2.125 L 2.734375 -0.21875 L 3.171875 -0.140625 L 3.171875 0 L 1.78125 0 L 1.78125 -0.140625 L 2.21875 -0.21875 L 2.21875 -2.078125 C 2.21875 -2.242188 2.171875 -2.375 2.078125 -2.46875 C 1.992188 -2.5625 1.863281 -2.609375 1.6875 -2.609375 C 1.507812 -2.609375 1.285156 -2.578125 1.015625 -2.515625 L 1.015625 -0.21875 L 1.453125 -0.140625 L 1.453125 0 L 0.140625 0 L 0.140625 -0.140625 L 0.5 -0.21875 L 0.5 -2.6875 L 0.140625 -2.765625 L 0.140625 -2.90625 L 0.984375 -2.90625 Z M 1 -2.671875 "/></g></g></g><g clip-path="url(#7eadf7e068)"><path fill="#ffffff" d="M 28.007812 10.214844 L 88.144531 10.214844 L 88.144531 20.722656 L 28.007812 20.722656 Z M 28.007812 10.214844 " fill-opacity="1" fill-rule="nonzero"/></g><g fill="#545454" fill-opacity="1"><g transform="translate(29.829367, 18.307537)"><g><path d="M 4.046875 -0.140625 C 4.066406 -0.0976562 4.066406 -0.0625 4.046875 -0.03125 C 4.035156 -0.0078125 4.003906 0 3.953125 0 L 3.375 0 C 3.34375 0 3.3125 -0.0078125 3.28125 -0.03125 C 3.257812 -0.0507812 3.242188 -0.078125 3.234375 -0.109375 L 3.0625 -0.515625 L 1.140625 -0.515625 L 0.96875 -0.109375 C 0.957031 -0.078125 0.9375 -0.0507812 0.90625 -0.03125 C 0.882812 -0.0078125 0.859375 0 0.828125 0 L 0.234375 0 C 0.191406 0 0.160156 -0.0078125 0.140625 -0.03125 C 0.117188 -0.0625 0.117188 -0.0976562 0.140625 -0.140625 L 1.921875 -4.125 C 1.941406 -4.164062 1.960938 -4.191406 1.984375 -4.203125 C 2.015625 -4.222656 2.046875 -4.234375 2.078125 -4.234375 L 2.109375 -4.234375 C 2.140625 -4.234375 2.164062 -4.222656 2.1875 -4.203125 C 2.21875 -4.179688 2.242188 -4.15625 2.265625 -4.125 Z M 1.40625 -1.171875 L 2.78125 -1.171875 L 2.09375 -2.84375 Z M 1.40625 -1.171875 "/></g></g><g transform="translate(34.023425, 18.307537)"><g><path d="M 3.265625 -1 C 3.296875 -1.03125 3.328125 -1.039062 3.359375 -1.03125 C 3.398438 -1.03125 3.429688 -1.019531 3.453125 -1 L 3.765625 -0.515625 C 3.773438 -0.492188 3.773438 -0.46875 3.765625 -0.4375 C 3.753906 -0.40625 3.734375 -0.378906 3.703125 -0.359375 C 3.597656 -0.273438 3.472656 -0.203125 3.328125 -0.140625 C 3.179688 -0.078125 3.03125 -0.03125 2.875 0 C 2.726562 0.0390625 2.582031 0.0625 2.4375 0.0625 C 2.195312 0.0625 1.960938 0.03125 1.734375 -0.03125 C 1.515625 -0.101562 1.316406 -0.203125 1.140625 -0.328125 C 0.960938 -0.460938 0.804688 -0.617188 0.671875 -0.796875 C 0.535156 -0.984375 0.429688 -1.179688 0.359375 -1.390625 C 0.285156 -1.609375 0.25 -1.84375 0.25 -2.09375 C 0.25 -2.332031 0.285156 -2.554688 0.359375 -2.765625 C 0.429688 -2.984375 0.535156 -3.179688 0.671875 -3.359375 C 0.804688 -3.546875 0.960938 -3.703125 1.140625 -3.828125 C 1.316406 -3.960938 1.515625 -4.066406 1.734375 -4.140625 C 1.960938 -4.210938 2.195312 -4.25 2.4375 -4.25 C 2.582031 -4.25 2.726562 -4.226562 2.875 -4.1875 C 3.03125 -4.15625 3.179688 -4.109375 3.328125 -4.046875 C 3.472656 -3.984375 3.601562 -3.90625 3.71875 -3.8125 C 3.757812 -3.78125 3.78125 -3.75 3.78125 -3.71875 C 3.78125 -3.695312 3.773438 -3.675781 3.765625 -3.65625 L 3.453125 -3.171875 C 3.429688 -3.148438 3.40625 -3.132812 3.375 -3.125 C 3.34375 -3.125 3.304688 -3.140625 3.265625 -3.171875 C 3.148438 -3.265625 3.019531 -3.335938 2.875 -3.390625 C 2.726562 -3.441406 2.582031 -3.46875 2.4375 -3.46875 C 2.238281 -3.46875 2.050781 -3.429688 1.875 -3.359375 C 1.707031 -3.296875 1.554688 -3.195312 1.421875 -3.0625 C 1.296875 -2.9375 1.195312 -2.789062 1.125 -2.625 C 1.0625 -2.457031 1.03125 -2.28125 1.03125 -2.09375 C 1.03125 -1.894531 1.066406 -1.710938 1.140625 -1.546875 C 1.210938 -1.378906 1.3125 -1.234375 1.4375 -1.109375 C 1.570312 -0.984375 1.722656 -0.882812 1.890625 -0.8125 C 2.054688 -0.738281 2.238281 -0.703125 2.4375 -0.703125 C 2.570312 -0.703125 2.710938 -0.726562 2.859375 -0.78125 C 3.015625 -0.832031 3.148438 -0.90625 3.265625 -1 Z M 3.265625 -1 "/></g></g><g transform="translate(38.079792, 18.307537)"><g><path d="M 1.28125 -4.09375 L 1.28125 -0.09375 C 1.28125 -0.03125 1.25 0 1.1875 0 L 0.59375 0 C 0.53125 0 0.5 -0.03125 0.5 -0.09375 L 0.5 -4.09375 C 0.5 -4.15625 0.53125 -4.1875 0.59375 -4.1875 L 1.1875 -4.1875 C 1.25 -4.1875 1.28125 -4.15625 1.28125 -4.09375 Z M 1.28125 -4.09375 "/></g></g><g transform="translate(39.853248, 18.307537)"><g><path d="M 4.046875 -0.140625 C 4.066406 -0.0976562 4.066406 -0.0625 4.046875 -0.03125 C 4.035156 -0.0078125 4.003906 0 3.953125 0 L 3.375 0 C 3.34375 0 3.3125 -0.0078125 3.28125 -0.03125 C 3.257812 -0.0507812 3.242188 -0.078125 3.234375 -0.109375 L 3.0625 -0.515625 L 1.140625 -0.515625 L 0.96875 -0.109375 C 0.957031 -0.078125 0.9375 -0.0507812 0.90625 -0.03125 C 0.882812 -0.0078125 0.859375 0 0.828125 0 L 0.234375 0 C 0.191406 0 0.160156 -0.0078125 0.140625 -0.03125 C 0.117188 -0.0625 0.117188 -0.0976562 0.140625 -0.140625 L 1.921875 -4.125 C 1.941406 -4.164062 1.960938 -4.191406 1.984375 -4.203125 C 2.015625 -4.222656 2.046875 -4.234375 2.078125 -4.234375 L 2.109375 -4.234375 C 2.140625 -4.234375 2.164062 -4.222656 2.1875 -4.203125 C 2.21875 -4.179688 2.242188 -4.15625 2.265625 -4.125 Z M 1.40625 -1.171875 L 2.78125 -1.171875 L 2.09375 -2.84375 Z M 1.40625 -1.171875 "/></g></g><g transform="translate(44.047305, 18.307537)"><g><path d="M 1.28125 -4.09375 L 1.28125 -0.09375 C 1.28125 -0.03125 1.25 0 1.1875 0 L 0.59375 0 C 0.53125 0 0.5 -0.03125 0.5 -0.09375 L 0.5 -4.09375 C 0.5 -4.15625 0.53125 -4.1875 0.59375 -4.1875 L 1.1875 -4.1875 C 1.25 -4.1875 1.28125 -4.15625 1.28125 -4.09375 Z M 1.28125 -4.09375 "/></g></g><g transform="translate(45.820761, 18.307537)"><g/></g><g transform="translate(47.594217, 18.307537)"><g><path d="M 3.265625 -1 C 3.296875 -1.03125 3.328125 -1.039062 3.359375 -1.03125 C 3.398438 -1.03125 3.429688 -1.019531 3.453125 -1 L 3.765625 -0.515625 C 3.773438 -0.492188 3.773438 -0.46875 3.765625 -0.4375 C 3.753906 -0.40625 3.734375 -0.378906 3.703125 -0.359375 C 3.597656 -0.273438 3.472656 -0.203125 3.328125 -0.140625 C 3.179688 -0.078125 3.03125 -0.03125 2.875 0 C 2.726562 0.0390625 2.582031 0.0625 2.4375 0.0625 C 2.195312 0.0625 1.960938 0.03125 1.734375 -0.03125 C 1.515625 -0.101562 1.316406 -0.203125 1.140625 -0.328125 C 0.960938 -0.460938 0.804688 -0.617188 0.671875 -0.796875 C 0.535156 -0.984375 0.429688 -1.179688 0.359375 -1.390625 C 0.285156 -1.609375 0.25 -1.84375 0.25 -2.09375 C 0.25 -2.332031 0.285156 -2.554688 0.359375 -2.765625 C 0.429688 -2.984375 0.535156 -3.179688 0.671875 -3.359375 C 0.804688 -3.546875 0.960938 -3.703125 1.140625 -3.828125 C 1.316406 -3.960938 1.515625 -4.066406 1.734375 -4.140625 C 1.960938 -4.210938 2.195312 -4.25 2.4375 -4.25 C 2.582031 -4.25 2.726562 -4.226562 2.875 -4.1875 C 3.03125 -4.15625 3.179688 -4.109375 3.328125 -4.046875 C 3.472656 -3.984375 3.601562 -3.90625 3.71875 -3.8125 C 3.757812 -3.78125 3.78125 -3.75 3.78125 -3.71875 C 3.78125 -3.695312 3.773438 -3.675781 3.765625 -3.65625 L 3.453125 -3.171875 C 3.429688 -3.148438 3.40625 -3.132812 3.375 -3.125 C 3.34375 -3.125 3.304688 -3.140625 3.265625 -3.171875 C 3.148438 -3.265625 3.019531 -3.335938 2.875 -3.390625 C 2.726562 -3.441406 2.582031 -3.46875 2.4375 -3.46875 C 2.238281 -3.46875 2.050781 -3.429688 1.875 -3.359375 C 1.707031 -3.296875 1.554688 -3.195312 1.421875 -3.0625 C 1.296875 -2.9375 1.195312 -2.789062 1.125 -2.625 C 1.0625 -2.457031 1.03125 -2.28125 1.03125 -2.09375 C 1.03125 -1.894531 1.066406 -1.710938 1.140625 -1.546875 C 1.210938 -1.378906 1.3125 -1.234375 1.4375 -1.109375 C 1.570312 -0.984375 1.722656 -0.882812 1.890625 -0.8125 C 2.054688 -0.738281 2.238281 -0.703125 2.4375 -0.703125 C 2.570312 -0.703125 2.710938 -0.726562 2.859375 -0.78125 C 3.015625 -0.832031 3.148438 -0.90625 3.265625 -1 Z M 3.265625 -1 "/></g></g><g transform="translate(51.650584, 18.307537)"><g><path d="M 0.984375 -4.1875 C 1.035156 -4.1875 1.0625 -4.160156 1.0625 -4.109375 L 1.0625 -0.078125 C 1.0625 -0.0234375 1.035156 0 0.984375 0 L 0.453125 0 C 0.390625 0 0.359375 -0.0234375 0.359375 -0.078125 L 0.359375 -4.109375 C 0.359375 -4.160156 0.390625 -4.1875 0.453125 -4.1875 Z M 0.984375 -4.1875 "/></g></g><g transform="translate(53.082567, 18.307537)"><g><path d="M 2.953125 -2.796875 C 3.003906 -2.796875 3.03125 -2.765625 3.03125 -2.703125 L 3.03125 -0.078125 C 3.03125 -0.0546875 3.019531 -0.0351562 3 -0.015625 C 2.988281 -0.00390625 2.96875 0 2.9375 0 L 2.640625 0 C 2.597656 0 2.566406 -0.0195312 2.546875 -0.0625 L 2.421875 -0.484375 C 2.359375 -0.378906 2.273438 -0.285156 2.171875 -0.203125 C 2.078125 -0.117188 1.96875 -0.0507812 1.84375 0 C 1.71875 0.0390625 1.585938 0.0625 1.453125 0.0625 C 1.234375 0.0625 1.039062 0.015625 0.875 -0.078125 C 0.707031 -0.171875 0.578125 -0.304688 0.484375 -0.484375 C 0.390625 -0.671875 0.34375 -0.890625 0.34375 -1.140625 L 0.34375 -2.703125 C 0.34375 -2.765625 0.367188 -2.796875 0.421875 -2.796875 L 0.953125 -2.796875 C 1.003906 -2.796875 1.03125 -2.765625 1.03125 -2.703125 L 1.03125 -1.171875 C 1.03125 -1.054688 1.054688 -0.953125 1.109375 -0.859375 C 1.160156 -0.765625 1.234375 -0.691406 1.328125 -0.640625 C 1.421875 -0.585938 1.53125 -0.5625 1.65625 -0.5625 C 1.78125 -0.5625 1.894531 -0.585938 2 -0.640625 C 2.101562 -0.703125 2.179688 -0.78125 2.234375 -0.875 C 2.296875 -0.96875 2.328125 -1.070312 2.328125 -1.1875 L 2.328125 -2.703125 C 2.328125 -2.765625 2.359375 -2.796875 2.421875 -2.796875 Z M 2.953125 -2.796875 "/></g></g><g transform="translate(56.480773, 18.307537)"><g><path d="M 1.953125 -2.859375 C 2.140625 -2.859375 2.3125 -2.820312 2.46875 -2.75 C 2.632812 -2.675781 2.773438 -2.570312 2.890625 -2.4375 C 3.015625 -2.3125 3.109375 -2.160156 3.171875 -1.984375 C 3.242188 -1.804688 3.28125 -1.609375 3.28125 -1.390625 C 3.28125 -1.179688 3.242188 -0.988281 3.171875 -0.8125 C 3.109375 -0.632812 3.015625 -0.476562 2.890625 -0.34375 C 2.773438 -0.21875 2.632812 -0.117188 2.46875 -0.046875 C 2.3125 0.0234375 2.132812 0.0625 1.9375 0.0625 C 1.738281 0.0625 1.554688 0.0195312 1.390625 -0.0625 C 1.222656 -0.15625 1.082031 -0.28125 0.96875 -0.4375 L 0.859375 -0.0625 C 0.847656 -0.0390625 0.832031 -0.0234375 0.8125 -0.015625 C 0.800781 -0.00390625 0.785156 0 0.765625 0 L 0.453125 0 C 0.429688 0 0.410156 -0.00390625 0.390625 -0.015625 C 0.367188 -0.0351562 0.359375 -0.0625 0.359375 -0.09375 L 0.359375 -1.234375 L 0.375 -1.234375 L 0.375 -4.25 C 0.375 -4.300781 0.398438 -4.328125 0.453125 -4.328125 L 0.984375 -4.328125 C 1.035156 -4.328125 1.0625 -4.300781 1.0625 -4.25 L 1.0625 -2.46875 C 1.175781 -2.59375 1.304688 -2.6875 1.453125 -2.75 C 1.609375 -2.820312 1.773438 -2.859375 1.953125 -2.859375 Z M 1.8125 -0.625 C 1.914062 -0.625 2.015625 -0.640625 2.109375 -0.671875 C 2.203125 -0.710938 2.28125 -0.769531 2.34375 -0.84375 C 2.414062 -0.914062 2.472656 -1 2.515625 -1.09375 C 2.554688 -1.1875 2.578125 -1.285156 2.578125 -1.390625 C 2.578125 -1.503906 2.554688 -1.609375 2.515625 -1.703125 C 2.472656 -1.796875 2.414062 -1.878906 2.34375 -1.953125 C 2.28125 -2.023438 2.203125 -2.078125 2.109375 -2.109375 C 2.015625 -2.148438 1.914062 -2.171875 1.8125 -2.171875 C 1.707031 -2.171875 1.609375 -2.148438 1.515625 -2.109375 C 1.421875 -2.078125 1.335938 -2.023438 1.265625 -1.953125 C 1.191406 -1.878906 1.132812 -1.796875 1.09375 -1.703125 C 1.050781 -1.609375 1.03125 -1.503906 1.03125 -1.390625 C 1.03125 -1.285156 1.050781 -1.1875 1.09375 -1.09375 C 1.132812 -1 1.191406 -0.914062 1.265625 -0.84375 C 1.335938 -0.769531 1.421875 -0.710938 1.515625 -0.671875 C 1.609375 -0.640625 1.707031 -0.625 1.8125 -0.625 Z M 1.8125 -0.625 "/></g></g><g transform="translate(59.961593, 18.307537)"><g><path d="M 3.03125 -1.53125 C 3.03125 -1.457031 3.015625 -1.382812 2.984375 -1.3125 C 2.953125 -1.238281 2.910156 -1.175781 2.859375 -1.125 C 2.804688 -1.082031 2.742188 -1.0625 2.671875 -1.0625 L 0.953125 -1.0625 C 0.984375 -0.96875 1.035156 -0.882812 1.109375 -0.8125 C 1.179688 -0.75 1.269531 -0.695312 1.375 -0.65625 C 1.476562 -0.613281 1.585938 -0.59375 1.703125 -0.59375 C 1.753906 -0.59375 1.8125 -0.601562 1.875 -0.625 C 1.945312 -0.644531 2.015625 -0.671875 2.078125 -0.703125 C 2.148438 -0.734375 2.210938 -0.769531 2.265625 -0.8125 C 2.285156 -0.820312 2.304688 -0.820312 2.328125 -0.8125 C 2.359375 -0.8125 2.382812 -0.800781 2.40625 -0.78125 L 2.6875 -0.421875 C 2.695312 -0.398438 2.703125 -0.375 2.703125 -0.34375 C 2.703125 -0.320312 2.691406 -0.300781 2.671875 -0.28125 C 2.585938 -0.21875 2.488281 -0.15625 2.375 -0.09375 C 2.257812 -0.0390625 2.140625 -0.00390625 2.015625 0.015625 C 1.898438 0.046875 1.789062 0.0625 1.6875 0.0625 C 1.476562 0.0625 1.28125 0.0234375 1.09375 -0.046875 C 0.914062 -0.117188 0.757812 -0.222656 0.625 -0.359375 C 0.488281 -0.492188 0.382812 -0.648438 0.3125 -0.828125 C 0.238281 -1.003906 0.203125 -1.191406 0.203125 -1.390625 C 0.203125 -1.597656 0.238281 -1.789062 0.3125 -1.96875 C 0.382812 -2.144531 0.484375 -2.300781 0.609375 -2.4375 C 0.742188 -2.570312 0.898438 -2.675781 1.078125 -2.75 C 1.253906 -2.820312 1.441406 -2.859375 1.640625 -2.859375 C 1.835938 -2.859375 2.019531 -2.820312 2.1875 -2.75 C 2.351562 -2.6875 2.5 -2.59375 2.625 -2.46875 C 2.757812 -2.351562 2.859375 -2.210938 2.921875 -2.046875 C 2.992188 -1.890625 3.03125 -1.71875 3.03125 -1.53125 Z M 1.625 -2.203125 C 1.519531 -2.203125 1.421875 -2.179688 1.328125 -2.140625 C 1.234375 -2.097656 1.148438 -2.035156 1.078125 -1.953125 C 1.015625 -1.878906 0.96875 -1.796875 0.9375 -1.703125 L 2.34375 -1.703125 C 2.3125 -1.796875 2.257812 -1.878906 2.1875 -1.953125 C 2.125 -2.035156 2.039062 -2.097656 1.9375 -2.140625 C 1.84375 -2.179688 1.738281 -2.203125 1.625 -2.203125 Z M 1.625 -2.203125 "/></g></g><g transform="translate(63.189062, 18.307537)"><g/></g><g transform="translate(64.962518, 18.307537)"><g><path d="M 1.28125 -4.09375 L 1.28125 -0.09375 C 1.28125 -0.03125 1.25 0 1.1875 0 L 0.59375 0 C 0.53125 0 0.5 -0.03125 0.5 -0.09375 L 0.5 -4.09375 C 0.5 -4.15625 0.53125 -4.1875 0.59375 -4.1875 L 1.1875 -4.1875 C 1.25 -4.1875 1.28125 -4.15625 1.28125 -4.09375 Z M 1.28125 -4.09375 "/></g></g><g transform="translate(66.735974, 18.307537)"><g><path d="M 1.953125 -2.859375 C 2.171875 -2.859375 2.363281 -2.8125 2.53125 -2.71875 C 2.695312 -2.625 2.828125 -2.484375 2.921875 -2.296875 C 3.015625 -2.117188 3.0625 -1.90625 3.0625 -1.65625 L 3.0625 -0.078125 C 3.0625 -0.0234375 3.03125 0 2.96875 0 L 2.453125 0 C 2.390625 0 2.359375 -0.0234375 2.359375 -0.078125 L 2.359375 -1.625 C 2.359375 -1.738281 2.332031 -1.84375 2.28125 -1.9375 C 2.226562 -2.03125 2.15625 -2.101562 2.0625 -2.15625 C 1.96875 -2.207031 1.859375 -2.234375 1.734375 -2.234375 C 1.609375 -2.234375 1.492188 -2.203125 1.390625 -2.140625 C 1.296875 -2.085938 1.21875 -2.015625 1.15625 -1.921875 C 1.09375 -1.828125 1.0625 -1.722656 1.0625 -1.609375 L 1.0625 -0.078125 C 1.0625 -0.0234375 1.035156 0 0.984375 0 L 0.453125 0 C 0.390625 0 0.359375 -0.0234375 0.359375 -0.078125 L 0.359375 -2.703125 C 0.359375 -2.734375 0.367188 -2.753906 0.390625 -2.765625 C 0.410156 -2.785156 0.429688 -2.796875 0.453125 -2.796875 L 0.765625 -2.796875 C 0.785156 -2.796875 0.800781 -2.789062 0.8125 -2.78125 C 0.832031 -2.769531 0.847656 -2.753906 0.859375 -2.734375 L 0.984375 -2.3125 C 1.046875 -2.414062 1.125 -2.507812 1.21875 -2.59375 C 1.320312 -2.675781 1.4375 -2.738281 1.5625 -2.78125 C 1.6875 -2.832031 1.816406 -2.859375 1.953125 -2.859375 Z M 1.953125 -2.859375 "/></g></g><g transform="translate(70.134179, 18.307537)"><g><path d="M 1.890625 -2.859375 C 2.109375 -2.859375 2.296875 -2.804688 2.453125 -2.703125 C 2.609375 -2.609375 2.726562 -2.472656 2.8125 -2.296875 C 2.894531 -2.117188 2.9375 -1.90625 2.9375 -1.65625 L 2.9375 -0.078125 C 2.9375 -0.0234375 2.910156 0 2.859375 0 L 2.328125 0 C 2.265625 0 2.234375 -0.0234375 2.234375 -0.078125 L 2.234375 -1.609375 C 2.234375 -1.796875 2.1875 -1.941406 2.09375 -2.046875 C 2.007812 -2.160156 1.867188 -2.21875 1.671875 -2.21875 C 1.554688 -2.21875 1.453125 -2.1875 1.359375 -2.125 C 1.265625 -2.070312 1.191406 -2 1.140625 -1.90625 C 1.085938 -1.820312 1.0625 -1.722656 1.0625 -1.609375 L 1.0625 -0.078125 C 1.0625 -0.0234375 1.035156 0 0.984375 0 L 0.453125 0 C 0.390625 0 0.359375 -0.0234375 0.359375 -0.078125 L 0.359375 -4.109375 C 0.359375 -4.160156 0.390625 -4.1875 0.453125 -4.1875 L 0.984375 -4.1875 C 1.035156 -4.1875 1.0625 -4.160156 1.0625 -4.109375 L 1.0625 -2.453125 C 1.15625 -2.578125 1.273438 -2.675781 1.421875 -2.75 C 1.566406 -2.820312 1.722656 -2.859375 1.890625 -2.859375 Z M 1.890625 -2.859375 "/></g></g><g transform="translate(73.413971, 18.307537)"><g><path d="M 3.015625 -2.796875 C 3.046875 -2.796875 3.066406 -2.785156 3.078125 -2.765625 C 3.097656 -2.753906 3.109375 -2.734375 3.109375 -2.703125 L 3.109375 -0.078125 C 3.109375 -0.0546875 3.097656 -0.0351562 3.078125 -0.015625 C 3.066406 -0.00390625 3.046875 0 3.015625 0 L 2.71875 0 C 2.664062 0 2.632812 -0.0195312 2.625 -0.0625 L 2.5 -0.4375 C 2.394531 -0.28125 2.257812 -0.15625 2.09375 -0.0625 C 1.925781 0.0195312 1.738281 0.0625 1.53125 0.0625 C 1.34375 0.0625 1.164062 0.0234375 1 -0.046875 C 0.84375 -0.117188 0.703125 -0.21875 0.578125 -0.34375 C 0.460938 -0.476562 0.367188 -0.632812 0.296875 -0.8125 C 0.234375 -0.988281 0.203125 -1.179688 0.203125 -1.390625 C 0.203125 -1.609375 0.234375 -1.804688 0.296875 -1.984375 C 0.359375 -2.160156 0.453125 -2.3125 0.578125 -2.4375 C 0.703125 -2.570312 0.84375 -2.675781 1 -2.75 C 1.164062 -2.820312 1.34375 -2.859375 1.53125 -2.859375 C 1.738281 -2.859375 1.925781 -2.8125 2.09375 -2.71875 C 2.257812 -2.632812 2.394531 -2.515625 2.5 -2.359375 L 2.625 -2.734375 C 2.632812 -2.773438 2.664062 -2.796875 2.71875 -2.796875 Z M 1.671875 -0.625 C 1.773438 -0.625 1.875 -0.640625 1.96875 -0.671875 C 2.0625 -0.710938 2.144531 -0.769531 2.21875 -0.84375 C 2.289062 -0.914062 2.34375 -1 2.375 -1.09375 C 2.414062 -1.1875 2.4375 -1.285156 2.4375 -1.390625 C 2.4375 -1.503906 2.414062 -1.609375 2.375 -1.703125 C 2.332031 -1.796875 2.273438 -1.878906 2.203125 -1.953125 C 2.140625 -2.023438 2.0625 -2.078125 1.96875 -2.109375 C 1.875 -2.148438 1.769531 -2.171875 1.65625 -2.171875 C 1.550781 -2.171875 1.453125 -2.148438 1.359375 -2.109375 C 1.273438 -2.078125 1.195312 -2.023438 1.125 -1.953125 C 1.050781 -1.878906 0.992188 -1.796875 0.953125 -1.703125 C 0.921875 -1.609375 0.90625 -1.503906 0.90625 -1.390625 C 0.90625 -1.285156 0.921875 -1.1875 0.953125 -1.09375 C 0.992188 -1 1.050781 -0.914062 1.125 -0.84375 C 1.195312 -0.769531 1.28125 -0.710938 1.375 -0.671875 C 1.46875 -0.640625 1.566406 -0.625 1.671875 -0.625 Z M 1.671875 -0.625 "/></g></g><g transform="translate(76.88653, 18.307537)"><g><path d="M 1.953125 -2.859375 C 2.140625 -2.859375 2.316406 -2.820312 2.484375 -2.75 C 2.648438 -2.675781 2.789062 -2.570312 2.90625 -2.4375 C 3.03125 -2.3125 3.125 -2.15625 3.1875 -1.96875 C 3.257812 -1.789062 3.296875 -1.597656 3.296875 -1.390625 C 3.296875 -1.179688 3.257812 -0.988281 3.1875 -0.8125 C 3.125 -0.632812 3.03125 -0.476562 2.90625 -0.34375 C 2.78125 -0.21875 2.632812 -0.117188 2.46875 -0.046875 C 2.3125 0.0234375 2.140625 0.0625 1.953125 0.0625 C 1.773438 0.0625 1.609375 0.03125 1.453125 -0.03125 C 1.296875 -0.101562 1.164062 -0.203125 1.0625 -0.328125 L 1.0625 1 C 1.0625 1.0625 1.035156 1.09375 0.984375 1.09375 L 0.453125 1.09375 C 0.390625 1.09375 0.359375 1.0625 0.359375 1 L 0.359375 -2.71875 C 0.359375 -2.738281 0.367188 -2.753906 0.390625 -2.765625 C 0.410156 -2.785156 0.429688 -2.796875 0.453125 -2.796875 L 0.765625 -2.796875 C 0.785156 -2.796875 0.800781 -2.789062 0.8125 -2.78125 C 0.832031 -2.769531 0.847656 -2.753906 0.859375 -2.734375 L 0.96875 -2.34375 C 1.082031 -2.507812 1.222656 -2.632812 1.390625 -2.71875 C 1.554688 -2.8125 1.742188 -2.859375 1.953125 -2.859375 Z M 1.828125 -0.625 C 1.929688 -0.625 2.023438 -0.640625 2.109375 -0.671875 C 2.203125 -0.710938 2.285156 -0.769531 2.359375 -0.84375 C 2.429688 -0.914062 2.488281 -1 2.53125 -1.09375 C 2.570312 -1.1875 2.59375 -1.285156 2.59375 -1.390625 C 2.59375 -1.503906 2.570312 -1.609375 2.53125 -1.703125 C 2.488281 -1.796875 2.429688 -1.875 2.359375 -1.9375 C 2.285156 -2.007812 2.203125 -2.066406 2.109375 -2.109375 C 2.023438 -2.148438 1.929688 -2.171875 1.828125 -2.171875 C 1.710938 -2.171875 1.609375 -2.148438 1.515625 -2.109375 C 1.421875 -2.066406 1.335938 -2.007812 1.265625 -1.9375 C 1.203125 -1.875 1.148438 -1.796875 1.109375 -1.703125 C 1.066406 -1.609375 1.046875 -1.503906 1.046875 -1.390625 C 1.046875 -1.285156 1.066406 -1.1875 1.109375 -1.09375 C 1.148438 -1 1.203125 -0.914062 1.265625 -0.84375 C 1.335938 -0.769531 1.421875 -0.710938 1.515625 -0.671875 C 1.609375 -0.640625 1.710938 -0.625 1.828125 -0.625 Z M 1.828125 -0.625 "/></g></g><g transform="translate(80.372857, 18.307537)"><g><path d="M 0.71875 -3.203125 C 0.632812 -3.203125 0.5625 -3.21875 0.5 -3.25 C 0.445312 -3.289062 0.398438 -3.34375 0.359375 -3.40625 C 0.328125 -3.46875 0.3125 -3.535156 0.3125 -3.609375 C 0.3125 -3.679688 0.328125 -3.75 0.359375 -3.8125 C 0.398438 -3.875 0.445312 -3.921875 0.5 -3.953125 C 0.5625 -3.992188 0.632812 -4.015625 0.71875 -4.015625 C 0.789062 -4.015625 0.859375 -3.992188 0.921875 -3.953125 C 0.984375 -3.921875 1.03125 -3.875 1.0625 -3.8125 C 1.101562 -3.75 1.125 -3.679688 1.125 -3.609375 C 1.125 -3.535156 1.101562 -3.46875 1.0625 -3.40625 C 1.03125 -3.34375 0.984375 -3.289062 0.921875 -3.25 C 0.859375 -3.21875 0.789062 -3.203125 0.71875 -3.203125 Z M 0.984375 -2.796875 C 1.035156 -2.796875 1.0625 -2.769531 1.0625 -2.71875 L 1.0625 -0.078125 C 1.0625 -0.0234375 1.035156 0 0.984375 0 L 0.453125 0 C 0.390625 0 0.359375 -0.0234375 0.359375 -0.078125 L 0.359375 -2.71875 C 0.359375 -2.769531 0.390625 -2.796875 0.453125 -2.796875 Z M 0.984375 -2.796875 "/></g></g><g transform="translate(81.80484, 18.307537)"><g><path d="M 3.71875 -2.859375 C 3.925781 -2.859375 4.109375 -2.804688 4.265625 -2.703125 C 4.421875 -2.609375 4.539062 -2.472656 4.625 -2.296875 C 4.71875 -2.117188 4.765625 -1.90625 4.765625 -1.65625 L 4.765625 -0.078125 C 4.765625 -0.0234375 4.734375 0 4.671875 0 L 4.140625 0 C 4.085938 0 4.0625 -0.0234375 4.0625 -0.078125 L 4.0625 -1.609375 C 4.0625 -1.734375 4.035156 -1.835938 3.984375 -1.921875 C 3.941406 -2.015625 3.878906 -2.085938 3.796875 -2.140625 C 3.710938 -2.191406 3.617188 -2.21875 3.515625 -2.21875 C 3.390625 -2.21875 3.28125 -2.191406 3.1875 -2.140625 C 3.101562 -2.085938 3.035156 -2.015625 2.984375 -1.921875 C 2.929688 -1.828125 2.90625 -1.71875 2.90625 -1.59375 L 2.90625 -1.609375 L 2.90625 -0.078125 C 2.90625 -0.0234375 2.878906 0 2.828125 0 L 2.296875 0 C 2.242188 0 2.21875 -0.0234375 2.21875 -0.078125 L 2.21875 -1.609375 C 2.21875 -1.734375 2.191406 -1.835938 2.140625 -1.921875 C 2.097656 -2.015625 2.035156 -2.085938 1.953125 -2.140625 C 1.867188 -2.191406 1.769531 -2.21875 1.65625 -2.21875 C 1.539062 -2.21875 1.4375 -2.191406 1.34375 -2.140625 C 1.257812 -2.085938 1.191406 -2.015625 1.140625 -1.921875 C 1.085938 -1.828125 1.0625 -1.71875 1.0625 -1.59375 L 1.0625 -0.078125 C 1.0625 -0.0234375 1.035156 0 0.984375 0 L 0.453125 0 C 0.390625 0 0.359375 -0.0234375 0.359375 -0.078125 L 0.359375 -2.703125 C 0.359375 -2.734375 0.367188 -2.753906 0.390625 -2.765625 C 0.410156 -2.785156 0.429688 -2.796875 0.453125 -2.796875 L 0.765625 -2.796875 C 0.785156 -2.796875 0.800781 -2.789062 0.8125 -2.78125 C 0.832031 -2.769531 0.847656 -2.753906 0.859375 -2.734375 L 0.984375 -2.3125 C 1.035156 -2.425781 1.101562 -2.519531 1.1875 -2.59375 C 1.28125 -2.675781 1.382812 -2.738281 1.5 -2.78125 C 1.625 -2.832031 1.75 -2.859375 1.875 -2.859375 C 2.082031 -2.859375 2.265625 -2.804688 2.421875 -2.703125 C 2.585938 -2.597656 2.710938 -2.445312 2.796875 -2.25 C 2.847656 -2.375 2.921875 -2.476562 3.015625 -2.5625 C 3.109375 -2.65625 3.210938 -2.726562 3.328125 -2.78125 C 3.453125 -2.832031 3.582031 -2.859375 3.71875 -2.859375 Z M 3.71875 -2.859375 "/></g></g></g></svg>