<?xml version="1.0" encoding="utf-8"?>
<!-- Generator: Adobe Illustrator 27.3.1, SVG Export Plug-In . SVG Version: 6.00 Build 0)  -->
<svg version="1.1" id="Camada_1" xmlns="http://www.w3.org/2000/svg" xmlns:xlink="http://www.w3.org/1999/xlink" x="0px" y="0px"
	 viewBox="0 0 138 48" style="enable-background:new 0 0 138 48;" xml:space="preserve">
<style type="text/css">
	.st0{fill:#FFFFFF;}
	.st1{fill:none;stroke:#EEEEEE;stroke-width:0.4;}
	.st2{fill:#27D045;}
	.st3{fill:none;}
	.st4{fill:#353535;}
	.st5{font-family:'Ebrima';}
	.st6{font-size:8.6908px;}
</style>
<g>
	<path class="st0" d="M16,11h106c1.7,0,3,1.3,3,3v16c0,1.7-1.3,3-3,3H16c-1.7,0-3-1.3-3-3V14C13,12.3,14.3,11,16,11z"/>
	<path class="st1" d="M16,11.2h106c1.5,0,2.8,1.3,2.8,2.8v16c0,1.5-1.3,2.8-2.8,2.8H16c-1.5,0-2.8-1.3-2.8-2.8V14
		C13.2,12.5,14.5,11.2,16,11.2z"/>
</g>
<g id="Group_36" transform="translate(2300 73)">
	<circle id="Ellipse_18" class="st2" cx="-2272.8" cy="-51" r="6.9"/>
	<g id="Group_35" transform="translate(254 386)">
		<g id="Group_34">
			<g id="Ellipse_19" transform="translate(94 75)">
				<circle class="st3" cx="-2620.8" cy="-512.1" r="3.6"/>
				<path class="st0" d="M-2620.8-508.4c-2,0-3.6-1.6-3.6-3.6c0-2,1.6-3.6,3.6-3.6c2,0,3.6,1.6,3.6,3.6
					C-2617.2-510.1-2618.7-508.4-2620.8-508.4z M-2620.8-515.1c-1.7,0-3.1,1.3-3.1,3.1c0,1.7,1.3,3.1,3.1,3.1c1.8,0,3.1-1.3,3.1-3.1
					C-2617.7-513.8-2619.1-515.1-2620.8-515.1z"/>
			</g>
			<path id="Path_126" class="st0" d="M-2529.9-435.2l-0.5,1.8l1.9-0.5l0.1-0.6l-1.3,0.4l0.3-1.2H-2529.9z"/>
			<path id="Path_127" class="st2" d="M-2529.6-434l0.4-1.3l1,0.9L-2529.6-434z"/>
		</g>
		<path id="Path_128" class="st0" d="M-2528.2-438.7c-0.3,0.2-0.4,0.4-0.4,0.7c-0.1,0.4,0.3,0.9,0.3,0.9c0.3,0.4,0.6,0.8,1,1.2
			c0.3,0.3,0.7,0.5,1.1,0.6c0.3,0.1,0.5,0.1,0.8,0.1c0.3-0.1,0.4-0.2,0.6-0.3c0-0.1,0.1-0.2,0.1-0.3c0-0.1,0-0.2,0-0.3
			s-0.8-0.5-0.9-0.4c-0.1,0-0.2,0.2-0.3,0.3s-0.2,0.2-0.3,0.2s-0.5-0.2-0.8-0.5c-0.3-0.2-0.4-0.4-0.5-0.7c0,0,0.1-0.1,0.2-0.2
			c0.1-0.1,0.1-0.2,0.2-0.3c0-0.1-0.3-0.8-0.4-0.9C-2527.9-438.8-2528.1-438.8-2528.2-438.7z"/>
	</g>
</g>
<text transform="matrix(1 0 0 1 38.2451 25.2874)" class="st4 st5 st6">ACIAI Clube Inhapim</text>
</svg>
