<svg xmlns="http://www.w3.org/2000/svg" xmlns:xlink="http://www.w3.org/1999/xlink" width="109" zoomAndPan="magnify" viewBox="0 0 81.75 48.75" height="65" preserveAspectRatio="xMidYMid meet" version="1.0"><defs><g/><clipPath id="9b44ddecf3"><path d="M 0.0859375 0 L 81.417969 0 L 81.417969 48.5 L 0.0859375 48.5 Z M 0.0859375 0 " clip-rule="nonzero"/></clipPath><clipPath id="a1018d0046"><path d="M 3.816406 0 L 77.6875 0 C 78.675781 0 79.625 0.394531 80.324219 1.09375 C 81.023438 1.792969 81.417969 2.742188 81.417969 3.730469 L 81.417969 44.769531 C 81.417969 45.761719 81.023438 46.707031 80.324219 47.410156 C 79.625 48.109375 78.675781 48.5 77.6875 48.5 L 3.816406 48.5 C 2.824219 48.5 1.875 48.109375 1.175781 47.410156 C 0.476562 46.707031 0.0859375 45.761719 0.0859375 44.769531 L 0.0859375 3.730469 C 0.0859375 2.742188 0.476562 1.792969 1.175781 1.09375 C 1.875 0.394531 2.824219 0 3.816406 0 Z M 3.816406 0 " clip-rule="nonzero"/></clipPath><clipPath id="9520d55a26"><path d="M 68 0 L 81.417969 0 L 81.417969 48.5 L 68 48.5 Z M 68 0 " clip-rule="nonzero"/></clipPath><clipPath id="012617ee77"><path d="M 0.0859375 36 L 81.417969 36 L 81.417969 48.5 L 0.0859375 48.5 Z M 0.0859375 36 " clip-rule="nonzero"/></clipPath><clipPath id="90b3b0a3cd"><path d="M 15.957031 6.054688 L 59 6.054688 L 59 35 L 15.957031 35 Z M 15.957031 6.054688 " clip-rule="nonzero"/></clipPath><clipPath id="bb4680c5a2"><path d="M 16 6.054688 L 65.207031 6.054688 L 65.207031 35.152344 L 16 35.152344 Z M 16 6.054688 " clip-rule="nonzero"/></clipPath></defs><g clip-path="url(#9b44ddecf3)"><g clip-path="url(#a1018d0046)"><path fill="#004aad" d="M 0.0859375 0 L 81.363281 0 L 81.363281 48.5 L 0.0859375 48.5 Z M 0.0859375 0 " fill-opacity="1" fill-rule="nonzero"/></g></g><path stroke-linecap="round" transform="matrix(0.746173, 0.00000000000000007, -0.00000000000000007, 0.746173, 13.300996, 2.869858)" fill="none" stroke-linejoin="miter" d="M 0.999605 1.00155 L 84.817877 1.00155 " stroke="#ffcf00" stroke-width="2" stroke-opacity="1" stroke-miterlimit="4"/><g clip-path="url(#9520d55a26)"><path stroke-linecap="round" transform="matrix(0.00312295, -0.746167, 0.746167, 0.00312295, 75.819389, 45.165506)" fill="none" stroke-linejoin="miter" d="M 1.000796 1.002186 L 55.801687 0.997936 " stroke="#ffcf00" stroke-width="2" stroke-opacity="1" stroke-miterlimit="4"/></g><g clip-path="url(#012617ee77)"><path stroke-linecap="round" transform="matrix(0.746167, -0.00315528, 0.00315528, 0.746167, 4.977358, 44.137866)" fill="none" stroke-linejoin="miter" d="M 0.999832 1.002592 L 95.969599 1.001084 " stroke="#ffcf00" stroke-width="2" stroke-opacity="1" stroke-miterlimit="4"/></g><path stroke-linecap="round" transform="matrix(0, -0.746173, 0.746173, 0, 4.931272, 45.166998)" fill="none" stroke-linejoin="miter" d="M 0.998592 0.99777 L 11.243571 0.99777 " stroke="#ffcf00" stroke-width="2" stroke-opacity="1" stroke-miterlimit="4"/><g clip-path="url(#90b3b0a3cd)"><path fill="#ffffff" d="M 58.988281 9.191406 L 53.246094 12.585938 C 52.871094 12.523438 52.484375 12.496094 52.097656 12.496094 C 50.074219 12.496094 48.085938 13.359375 46.5625 14.753906 C 45.648438 15.59375 44.898438 16.636719 44.410156 17.800781 L 38.410156 21.359375 C 38.394531 21.207031 38.394531 21.039062 38.394531 20.882812 C 38.394531 19.386719 38.652344 17.929688 39.117188 16.5625 C 40.976562 11.117188 46.1875 7.078125 52.148438 7.078125 C 54.628906 7.117188 56.886719 7.8125 58.988281 9.191406 Z M 34.074219 17.773438 L 29.015625 6.960938 L 28.847656 6.960938 L 15.957031 34.625 L 23.996094 29.875 L 25.660156 26.238281 L 28.964844 19.023438 L 31.800781 25.269531 L 36.320312 22.597656 Z M 34.074219 17.773438 " fill-opacity="1" fill-rule="nonzero"/></g><g clip-path="url(#bb4680c5a2)"><path fill="#ffcf00" d="M 44.371094 20.289062 C 44.316406 20.652344 44.292969 21.011719 44.292969 21.375 C 44.292969 26.097656 48.5 29.734375 52.589844 29.734375 C 55.027344 29.734375 57.128906 28.429688 58.886719 26.714844 L 61.945312 31.023438 C 59.609375 33.347656 56.769531 35.089844 52.757812 35.089844 C 47.777344 35.089844 43.402344 32.417969 40.964844 28.496094 C 40.074219 27.078125 39.453125 25.488281 39.132812 23.8125 L 37.632812 24.820312 L 39.261719 28.289062 L 42.433594 35.089844 L 36.550781 35.089844 L 34.847656 31.320312 L 33.234375 27.761719 L 22.332031 35.078125 L 16.460938 35.078125 L 24.5 30.328125 L 32.304688 25.722656 L 36.820312 23.050781 L 38.910156 21.8125 L 44.925781 18.265625 L 53.75 13.050781 L 59.492188 9.65625 L 65.542969 6.082031 L 59.851562 9.902344 C 60.5625 10.40625 61.257812 10.972656 61.945312 11.632812 L 58.871094 15.824219 C 57.683594 14.664062 56.34375 13.785156 54.910156 13.335938 C 54.871094 13.320312 54.832031 13.308594 54.796875 13.296875 Z M 44.371094 20.289062 " fill-opacity="1" fill-rule="nonzero"/></g><g fill="#ffffff" fill-opacity="1"><g transform="translate(13.300996, 42.842704)"><g><path d="M 0.203125 -2.4375 C 0.203125 -2.914062 0.296875 -3.34375 0.484375 -3.71875 C 0.679688 -4.09375 0.960938 -4.382812 1.328125 -4.59375 C 1.691406 -4.800781 2.117188 -4.90625 2.609375 -4.90625 C 3.023438 -4.90625 3.398438 -4.828125 3.734375 -4.671875 C 4.066406 -4.515625 4.335938 -4.289062 4.546875 -4 C 4.753906 -3.707031 4.890625 -3.367188 4.953125 -2.984375 L 3.359375 -2.984375 C 3.285156 -3.148438 3.179688 -3.273438 3.046875 -3.359375 C 2.910156 -3.453125 2.753906 -3.5 2.578125 -3.5 C 2.316406 -3.5 2.113281 -3.398438 1.96875 -3.203125 C 1.820312 -3.015625 1.75 -2.757812 1.75 -2.4375 C 1.75 -2.113281 1.820312 -1.851562 1.96875 -1.65625 C 2.113281 -1.46875 2.316406 -1.375 2.578125 -1.375 C 2.753906 -1.375 2.910156 -1.414062 3.046875 -1.5 C 3.179688 -1.59375 3.285156 -1.71875 3.359375 -1.875 L 4.953125 -1.875 C 4.890625 -1.488281 4.753906 -1.148438 4.546875 -0.859375 C 4.335938 -0.578125 4.066406 -0.359375 3.734375 -0.203125 C 3.398438 -0.046875 3.023438 0.03125 2.609375 0.03125 C 2.117188 0.03125 1.691406 -0.0703125 1.328125 -0.28125 C 0.960938 -0.488281 0.679688 -0.78125 0.484375 -1.15625 C 0.296875 -1.53125 0.203125 -1.957031 0.203125 -2.4375 Z M 0.203125 -2.4375 "/></g></g></g><g fill="#ffffff" fill-opacity="1"><g transform="translate(18.466056, 42.842704)"><g><path d="M 1.859375 -1.15625 L 3.328125 -1.15625 L 3.328125 0 L 0.34375 0 L 0.34375 -4.859375 L 1.859375 -4.859375 Z M 1.859375 -1.15625 "/></g></g></g><g fill="#ffffff" fill-opacity="1"><g transform="translate(21.936865, 42.842704)"><g><path d="M 1.828125 -4.859375 L 1.828125 -2.125 C 1.828125 -1.894531 1.875 -1.710938 1.96875 -1.578125 C 2.070312 -1.453125 2.234375 -1.390625 2.453125 -1.390625 C 2.671875 -1.390625 2.832031 -1.453125 2.9375 -1.578125 C 3.039062 -1.710938 3.09375 -1.894531 3.09375 -2.125 L 3.09375 -4.859375 L 4.609375 -4.859375 L 4.609375 -2.125 C 4.609375 -1.65625 4.515625 -1.257812 4.328125 -0.9375 C 4.140625 -0.613281 3.875 -0.367188 3.53125 -0.203125 C 3.195312 -0.0351562 2.828125 0.046875 2.421875 0.046875 C 2.003906 0.046875 1.632812 -0.0351562 1.3125 -0.203125 C 1 -0.367188 0.753906 -0.613281 0.578125 -0.9375 C 0.398438 -1.257812 0.3125 -1.65625 0.3125 -2.125 L 0.3125 -4.859375 Z M 1.828125 -4.859375 "/></g></g></g><g fill="#ffffff" fill-opacity="1"><g transform="translate(26.868707, 42.842704)"><g><path d="M 3.59375 -2.484375 C 3.882812 -2.421875 4.109375 -2.28125 4.265625 -2.0625 C 4.429688 -1.851562 4.515625 -1.609375 4.515625 -1.328125 C 4.515625 -0.898438 4.375 -0.570312 4.09375 -0.34375 C 3.8125 -0.113281 3.410156 0 2.890625 0 L 0.34375 0 L 0.34375 -4.859375 L 2.8125 -4.859375 C 3.3125 -4.859375 3.703125 -4.75 3.984375 -4.53125 C 4.265625 -4.320312 4.40625 -4.007812 4.40625 -3.59375 C 4.40625 -3.3125 4.332031 -3.070312 4.1875 -2.875 C 4.039062 -2.6875 3.84375 -2.554688 3.59375 -2.484375 Z M 1.859375 -2.96875 L 2.453125 -2.96875 C 2.585938 -2.96875 2.6875 -2.992188 2.75 -3.046875 C 2.820312 -3.097656 2.859375 -3.179688 2.859375 -3.296875 C 2.859375 -3.421875 2.820312 -3.507812 2.75 -3.5625 C 2.6875 -3.625 2.585938 -3.65625 2.453125 -3.65625 L 1.859375 -3.65625 Z M 2.5625 -1.21875 C 2.695312 -1.21875 2.796875 -1.242188 2.859375 -1.296875 C 2.929688 -1.347656 2.96875 -1.4375 2.96875 -1.5625 C 2.96875 -1.789062 2.832031 -1.90625 2.5625 -1.90625 L 1.859375 -1.90625 L 1.859375 -1.21875 Z M 2.5625 -1.21875 "/></g></g></g><g fill="#ffffff" fill-opacity="1"><g transform="translate(31.560474, 42.842704)"><g><path d="M 1.859375 -3.640625 L 1.859375 -3.046875 L 3.375 -3.046875 L 3.375 -1.90625 L 1.859375 -1.90625 L 1.859375 -1.21875 L 3.578125 -1.21875 L 3.578125 0 L 0.34375 0 L 0.34375 -4.859375 L 3.578125 -4.859375 L 3.578125 -3.640625 Z M 1.859375 -3.640625 "/></g></g></g><g fill="#ffffff" fill-opacity="1"><g transform="translate(37.775291, 42.382615)"><g><path d="M 1.1875 -3.9375 L 1.1875 0 L 0.28125 0 L 0.28125 -3.9375 Z M 1.1875 -3.9375 "/></g></g></g><g fill="#ffffff" fill-opacity="1"><g transform="translate(39.004943, 42.382615)"><g><path d="M 1.1875 -2.4375 L 1.1875 0 L 0.28125 0 L 0.28125 -3.9375 L 1.1875 -3.9375 L 2.75 -1.484375 L 2.75 -3.9375 L 3.65625 -3.9375 L 3.65625 0 L 2.75 0 Z M 1.1875 -2.4375 "/></g></g></g><g fill="#ffffff" fill-opacity="1"><g transform="translate(42.703429, 42.382615)"><g><path d="M 1.1875 -1.578125 L 1.1875 0 L 0.28125 0 L 0.28125 -3.9375 L 1.1875 -3.9375 L 1.1875 -2.359375 L 2.453125 -2.359375 L 2.453125 -3.9375 L 3.34375 -3.9375 L 3.34375 0 L 2.453125 0 L 2.453125 -1.578125 Z M 1.1875 -1.578125 "/></g></g></g><g fill="#ffffff" fill-opacity="1"><g transform="translate(46.096886, 42.382615)"><g><path d="M 2.28125 -3.9375 L 3.875 0 L 2.90625 0 L 2.609375 -0.78125 L 1.125 -0.78125 L 0.828125 0 L -0.140625 0 L 1.453125 -3.9375 Z M 2.3125 -1.578125 L 1.875 -2.71875 L 1.859375 -2.71875 L 1.421875 -1.578125 Z M 2.3125 -1.578125 "/></g></g></g><g fill="#ffffff" fill-opacity="1"><g transform="translate(49.595197, 42.382615)"><g><path d="M 0.28125 -3.9375 L 1.71875 -3.9375 C 2.125 -3.9375 2.445312 -3.832031 2.6875 -3.625 C 2.9375 -3.414062 3.0625 -3.113281 3.0625 -2.71875 C 3.0625 -2.320312 2.9375 -2.007812 2.6875 -1.78125 C 2.4375 -1.5625 2.113281 -1.453125 1.71875 -1.453125 L 1.1875 -1.453125 L 1.1875 0 L 0.28125 0 Z M 1.1875 -2.171875 L 1.4375 -2.171875 C 1.632812 -2.171875 1.796875 -2.210938 1.921875 -2.296875 C 2.054688 -2.378906 2.125 -2.507812 2.125 -2.6875 C 2.125 -2.875 2.054688 -3.007812 1.921875 -3.09375 C 1.796875 -3.175781 1.632812 -3.21875 1.4375 -3.21875 L 1.1875 -3.21875 Z M 1.1875 -2.171875 "/></g></g></g><g fill="#ffffff" fill-opacity="1"><g transform="translate(52.53111, 42.382615)"><g><path d="M 1.1875 -3.9375 L 1.1875 0 L 0.28125 0 L 0.28125 -3.9375 Z M 1.1875 -3.9375 "/></g></g></g><g fill="#ffffff" fill-opacity="1"><g transform="translate(53.760761, 42.382615)"><g><path d="M 3.53125 0 L 3.34375 -2.328125 L 3.328125 -2.328125 L 2.515625 -0.03125 L 1.984375 -0.03125 L 1.1875 -2.328125 L 1.15625 -2.328125 L 0.96875 0 L 0.078125 0 L 0.421875 -3.9375 L 1.375 -3.9375 L 2.25 -1.65625 L 3.125 -3.9375 L 4.078125 -3.9375 L 4.4375 0 Z M 3.53125 0 "/></g></g></g><g fill="#ffffff" fill-opacity="1"><g transform="translate(58.031179, 42.382615)"><g><path d="M 0.28125 -1.75 L 1.828125 -1.75 L 1.828125 -1.015625 L 0.28125 -1.015625 Z M 0.28125 -1.75 "/></g></g></g><g fill="#ffffff" fill-opacity="1"><g transform="translate(59.899487, 42.382615)"><g><path d="M 3.53125 0 L 3.34375 -2.328125 L 3.328125 -2.328125 L 2.515625 -0.03125 L 1.984375 -0.03125 L 1.1875 -2.328125 L 1.15625 -2.328125 L 0.96875 0 L 0.078125 0 L 0.421875 -3.9375 L 1.375 -3.9375 L 2.25 -1.65625 L 3.125 -3.9375 L 4.078125 -3.9375 L 4.4375 0 Z M 3.53125 0 "/></g></g></g><g fill="#ffffff" fill-opacity="1"><g transform="translate(64.169906, 42.382615)"><g><path d="M 3.84375 -2.203125 L 3.84375 -1.34375 C 3.738281 -0.875 3.515625 -0.519531 3.171875 -0.28125 C 2.828125 -0.0390625 2.445312 0.078125 2.03125 0.078125 C 1.5 0.078125 1.046875 -0.117188 0.671875 -0.515625 C 0.296875 -0.921875 0.109375 -1.40625 0.109375 -1.96875 C 0.109375 -2.539062 0.289062 -3.019531 0.65625 -3.40625 C 1.019531 -3.800781 1.476562 -4 2.03125 -4 C 2.664062 -4 3.171875 -3.773438 3.546875 -3.328125 L 2.953125 -2.6875 C 2.742188 -3.019531 2.453125 -3.1875 2.078125 -3.1875 C 1.796875 -3.1875 1.554688 -3.066406 1.359375 -2.828125 C 1.171875 -2.585938 1.078125 -2.300781 1.078125 -1.96875 C 1.078125 -1.632812 1.171875 -1.347656 1.359375 -1.109375 C 1.554688 -0.867188 1.796875 -0.75 2.078125 -0.75 C 2.304688 -0.75 2.503906 -0.816406 2.671875 -0.953125 C 2.847656 -1.097656 2.9375 -1.285156 2.9375 -1.515625 L 2.03125 -1.515625 L 2.03125 -2.203125 Z M 3.84375 -2.203125 "/></g></g></g></svg>