<svg xmlns="http://www.w3.org/2000/svg" xmlns:xlink="http://www.w3.org/1999/xlink" width="50" zoomAndPan="magnify" viewBox="0 0 37.5 37.499999" height="50" preserveAspectRatio="xMidYMid meet" version="1.0"><defs><clipPath id="8af87e2f48"><path d="M 0 0 L 37.007812 0 L 37.007812 37.007812 L 0 37.007812 Z M 0 0 " clip-rule="nonzero"/></clipPath><clipPath id="78f2aa6561"><path d="M 18.503906 0 C 8.285156 0 0 8.285156 0 18.503906 C 0 28.722656 8.285156 37.007812 18.503906 37.007812 C 28.722656 37.007812 37.007812 28.722656 37.007812 18.503906 C 37.007812 8.285156 28.722656 0 18.503906 0 Z M 18.503906 0 " clip-rule="nonzero"/></clipPath><clipPath id="bce32016d5"><path d="M 2.886719 8 L 30 8 L 30 26 L 2.886719 26 Z M 2.886719 8 " clip-rule="nonzero"/></clipPath><clipPath id="36984cae7f"><path d="M 3 7.894531 L 33.972656 7.894531 L 33.972656 26.398438 L 3 26.398438 Z M 3 7.894531 " clip-rule="nonzero"/></clipPath></defs><g clip-path="url(#8af87e2f48)"><g clip-path="url(#78f2aa6561)"><path fill="#004aad" d="M 0 0 L 37.007812 0 L 37.007812 37.007812 L 0 37.007812 Z M 0 0 " fill-opacity="1" fill-rule="nonzero"/><path stroke-linecap="butt" transform="matrix(0.740132, 0, 0, 0.740132, 0.0000005, 0)" fill="none" stroke-linejoin="miter" d="M 25.000834 0 C 11.194167 0 -0.000000675556 11.194167 -0.000000675556 25.000835 C -0.000000675556 38.807503 11.194167 50.00167 25.000834 50.00167 C 38.807502 50.00167 50.001669 38.807503 50.001669 25.000835 C 50.001669 11.194167 38.807502 0 25.000834 0 Z M 25.000834 0 " stroke="#043a82" stroke-width="2" stroke-opacity="1" stroke-miterlimit="4"/></g></g><g clip-path="url(#bce32016d5)"><path fill="#ffffff" d="M 29.984375 9.871094 L 26.371094 12.007812 C 26.132812 11.96875 25.890625 11.953125 25.644531 11.953125 C 24.371094 11.953125 23.121094 12.496094 22.160156 13.375 C 21.582031 13.902344 21.113281 14.558594 20.804688 15.292969 L 17.027344 17.535156 C 17.015625 17.4375 17.015625 17.332031 17.015625 17.234375 C 17.015625 16.289062 17.179688 15.371094 17.472656 14.511719 C 18.640625 11.082031 21.925781 8.539062 25.679688 8.539062 C 27.238281 8.5625 28.660156 9.003906 29.984375 9.871094 Z M 14.296875 15.273438 L 11.109375 8.464844 L 11.003906 8.464844 L 2.886719 25.886719 L 7.949219 22.898438 L 8.996094 20.605469 L 11.078125 16.0625 L 12.867188 19.996094 L 15.710938 18.3125 Z M 14.296875 15.273438 " fill-opacity="1" fill-rule="nonzero"/></g><g clip-path="url(#36984cae7f)"><path fill="#ffcf00" d="M 20.777344 16.859375 C 20.746094 17.085938 20.730469 17.316406 20.730469 17.542969 C 20.730469 20.515625 23.378906 22.808594 25.953125 22.808594 C 27.492188 22.808594 28.816406 21.988281 29.917969 20.90625 L 31.84375 23.621094 C 30.375 25.082031 28.585938 26.179688 26.058594 26.179688 C 22.925781 26.179688 20.167969 24.496094 18.632812 22.027344 C 18.074219 21.132812 17.683594 20.132812 17.480469 19.078125 L 16.539062 19.710938 L 17.5625 21.898438 L 19.558594 26.179688 L 15.855469 26.179688 L 14.78125 23.804688 L 13.765625 21.5625 L 6.902344 26.171875 L 3.203125 26.171875 L 8.265625 23.179688 L 13.183594 20.28125 L 16.027344 18.597656 L 17.34375 17.820312 L 21.128906 15.585938 L 26.6875 12.300781 L 30.300781 10.164062 L 34.113281 7.914062 L 30.527344 10.320312 C 30.976562 10.636719 31.414062 10.992188 31.84375 11.40625 L 29.910156 14.046875 C 29.164062 13.316406 28.320312 12.765625 27.417969 12.480469 C 27.394531 12.472656 27.367188 12.464844 27.34375 12.457031 Z M 20.777344 16.859375 " fill-opacity="1" fill-rule="nonzero"/></g></svg>