<svg xmlns="http://www.w3.org/2000/svg" xmlns:xlink="http://www.w3.org/1999/xlink" width="50" zoomAndPan="magnify" viewBox="0 0 37.5 37.499999" height="50" preserveAspectRatio="xMidYMid meet" version="1.0"><defs><clipPath id="28c0cd780b"><path d="M 0.519531 0.519531 L 36.785156 0.519531 L 36.785156 36.785156 L 0.519531 36.785156 Z M 0.519531 0.519531 " clip-rule="nonzero"/></clipPath><clipPath id="05e9f51695"><path d="M 1 1 L 36.785156 1 L 36.785156 36 L 1 36 Z M 1 1 " clip-rule="nonzero"/></clipPath></defs><g clip-path="url(#28c0cd780b)"><path fill="#27d045" d="M 36.785156 18.652344 C 36.785156 19.246094 36.753906 19.835938 36.695312 20.429688 C 36.640625 21.019531 36.550781 21.605469 36.4375 22.1875 C 36.320312 22.769531 36.175781 23.347656 36.003906 23.914062 C 35.832031 24.484375 35.632812 25.042969 35.402344 25.589844 C 35.175781 26.140625 34.921875 26.675781 34.644531 27.199219 C 34.363281 27.722656 34.058594 28.230469 33.730469 28.726562 C 33.398438 29.21875 33.046875 29.695312 32.667969 30.15625 C 32.292969 30.613281 31.894531 31.054688 31.472656 31.472656 C 31.054688 31.894531 30.613281 32.292969 30.15625 32.667969 C 29.695312 33.046875 29.21875 33.398438 28.726562 33.730469 C 28.230469 34.058594 27.722656 34.363281 27.199219 34.644531 C 26.675781 34.921875 26.140625 35.175781 25.589844 35.402344 C 25.042969 35.632812 24.484375 35.832031 23.914062 36.003906 C 23.347656 36.175781 22.769531 36.320312 22.1875 36.4375 C 21.605469 36.550781 21.019531 36.640625 20.429688 36.695312 C 19.835938 36.753906 19.246094 36.785156 18.652344 36.785156 C 18.058594 36.785156 17.464844 36.753906 16.875 36.695312 C 16.28125 36.640625 15.695312 36.550781 15.113281 36.4375 C 14.53125 36.320312 13.957031 36.175781 13.386719 36.003906 C 12.820312 35.832031 12.261719 35.632812 11.710938 35.402344 C 11.164062 35.175781 10.628906 34.921875 10.101562 34.644531 C 9.578125 34.363281 9.070312 34.058594 8.578125 33.730469 C 8.082031 33.398438 7.605469 33.046875 7.148438 32.667969 C 6.6875 32.292969 6.25 31.894531 5.828125 31.472656 C 5.410156 31.054688 5.011719 30.613281 4.632812 30.15625 C 4.257812 29.695312 3.902344 29.21875 3.574219 28.726562 C 3.246094 28.230469 2.9375 27.722656 2.660156 27.199219 C 2.378906 26.675781 2.125 26.140625 1.898438 25.589844 C 1.671875 25.042969 1.472656 24.484375 1.300781 23.914062 C 1.125 23.347656 0.980469 22.769531 0.867188 22.1875 C 0.75 21.605469 0.664062 21.019531 0.605469 20.429688 C 0.546875 19.835938 0.519531 19.246094 0.519531 18.652344 C 0.519531 18.058594 0.546875 17.464844 0.605469 16.875 C 0.664062 16.28125 0.75 15.695312 0.867188 15.113281 C 0.980469 14.53125 1.125 13.957031 1.300781 13.386719 C 1.472656 12.820312 1.671875 12.261719 1.898438 11.710938 C 2.125 11.164062 2.378906 10.628906 2.660156 10.101562 C 2.9375 9.578125 3.246094 9.070312 3.574219 8.578125 C 3.902344 8.082031 4.257812 7.605469 4.632812 7.148438 C 5.011719 6.6875 5.410156 6.25 5.828125 5.828125 C 6.25 5.410156 6.6875 5.011719 7.148438 4.632812 C 7.605469 4.257812 8.082031 3.902344 8.578125 3.574219 C 9.070312 3.246094 9.578125 2.9375 10.101562 2.660156 C 10.628906 2.378906 11.164062 2.125 11.710938 1.898438 C 12.261719 1.671875 12.820312 1.472656 13.386719 1.300781 C 13.957031 1.125 14.53125 0.980469 15.113281 0.867188 C 15.695312 0.75 16.28125 0.664062 16.875 0.605469 C 17.464844 0.546875 18.058594 0.519531 18.652344 0.519531 C 19.246094 0.519531 19.835938 0.546875 20.429688 0.605469 C 21.019531 0.664062 21.605469 0.75 22.1875 0.867188 C 22.769531 0.980469 23.347656 1.125 23.914062 1.300781 C 24.484375 1.472656 25.042969 1.671875 25.589844 1.898438 C 26.140625 2.125 26.675781 2.378906 27.199219 2.660156 C 27.722656 2.9375 28.230469 3.246094 28.726562 3.574219 C 29.21875 3.902344 29.695312 4.257812 30.15625 4.632812 C 30.613281 5.011719 31.054688 5.410156 31.472656 5.828125 C 31.894531 6.25 32.292969 6.6875 32.667969 7.148438 C 33.046875 7.605469 33.398438 8.082031 33.730469 8.578125 C 34.058594 9.070312 34.363281 9.578125 34.644531 10.101562 C 34.921875 10.628906 35.175781 11.164062 35.402344 11.710938 C 35.632812 12.261719 35.832031 12.820312 36.003906 13.386719 C 36.175781 13.957031 36.320312 14.53125 36.4375 15.113281 C 36.550781 15.695312 36.640625 16.28125 36.695312 16.875 C 36.753906 17.464844 36.785156 18.058594 36.785156 18.652344 Z M 36.785156 18.652344 " fill-opacity="1" fill-rule="nonzero"/></g><g clip-path="url(#05e9f51695)"><path stroke-linecap="butt" transform="matrix(0.30222, 0, 0, 0.30222, 9.282484, 8.980263)" fill="none" stroke-linejoin="miter" d="M 60.498644 31.499324 C 60.498644 33.399324 60.317691 35.286399 59.942861 37.160549 C 59.568031 39.021773 59.025174 40.844223 58.288439 42.602046 C 57.56463 44.359869 56.672793 46.027216 55.612929 47.617012 C 54.553065 49.193883 53.351024 50.654428 52.006806 52.011571 C 50.662588 53.355788 49.189119 54.557829 47.612248 55.617693 C 46.022452 56.664632 44.355105 57.569394 42.597281 58.293204 C 40.839458 59.017014 39.029934 59.572796 37.155784 59.947626 C 35.29456 60.309531 33.407485 60.503408 31.494559 60.503408 C 29.594559 60.503408 27.707484 60.309531 25.846259 59.947626 C 23.97211 59.572796 22.162586 59.017014 20.404762 58.293204 C 18.646939 57.569394 16.966667 56.664632 15.389796 55.617693 C 13.8 54.557829 12.339455 53.355788 10.995238 52.011571 C 9.65102 50.654428 8.448979 49.193883 7.389115 47.617012 C 6.329251 46.027216 5.437414 44.359869 4.713604 42.602046 C 3.976869 40.844223 3.434012 39.021773 3.059182 37.160549 C 2.684352 35.286399 2.5034 33.399324 2.5034 31.499324 C 2.5034 29.599324 2.684352 27.712249 3.059182 25.838099 C 3.434012 23.976874 3.976869 22.16735 4.713604 20.396602 C 5.437414 18.638778 6.329251 16.971431 7.389115 15.39456 C 8.448979 13.804764 9.65102 12.34422 10.995238 11.000002 C 12.339455 9.642859 13.8 8.440818 15.389796 7.380954 C 16.966667 6.334015 18.646939 5.442178 20.404762 4.705444 C 22.162586 3.981634 23.97211 3.425852 25.846259 3.051022 C 27.707484 2.689117 29.594559 2.495239 31.494559 2.495239 C 33.407485 2.495239 35.29456 2.689117 37.155784 3.051022 C 39.029934 3.425852 40.839458 3.981634 42.597281 4.705444 C 44.355105 5.442178 46.022452 6.334015 47.612248 7.380954 C 49.189119 8.440818 50.662588 9.642859 52.006806 11.000002 C 53.351024 12.34422 54.553065 13.804764 55.612929 15.39456 C 56.672793 16.971431 57.56463 18.638778 58.288439 20.396602 C 59.025174 22.16735 59.568031 23.976874 59.942861 25.838099 C 60.317691 27.712249 60.498644 29.599324 60.498644 31.499324 Z M 60.498644 31.499324 " stroke="#ffffff" stroke-width="5" stroke-opacity="1" stroke-miterlimit="4"/></g><path fill="#ffffff" d="M 10.792969 23.488281 L 9.402344 28.414062 L 14.511719 26.992188 L 14.78125 25.421875 L 11.457031 26.480469 L 12.335938 23.304688 Z M 10.792969 23.488281 " fill-opacity="1" fill-rule="nonzero"/><path fill="#27d045" d="M 11.398438 26.507812 C 11.398438 26.480469 12.457031 22.972656 12.457031 22.972656 L 14.996094 25.359375 Z M 11.398438 26.507812 " fill-opacity="1" fill-rule="nonzero"/><path fill="#ffffff" d="M 15.015625 14.15625 C 14.367188 14.609375 13.972656 15.222656 13.835938 16 C 13.683594 17.179688 14.410156 18.390625 14.410156 18.390625 C 15.148438 19.488281 16.015625 20.476562 17.007812 21.351562 C 17.882812 22.042969 18.851562 22.554688 19.910156 22.890625 C 20.539062 23.144531 21.183594 23.203125 21.84375 23.074219 C 22.4375 22.910156 22.917969 22.589844 23.296875 22.105469 C 23.382812 21.890625 23.441406 21.671875 23.476562 21.441406 C 23.511719 21.242188 23.511719 21.039062 23.476562 20.835938 C 23.445312 20.625 21.269531 19.628906 21.058594 19.6875 C 20.847656 19.75 20.667969 20.140625 20.425781 20.476562 C 20.183594 20.808594 20.09375 20.957031 19.851562 20.957031 C 19.609375 20.957031 18.550781 20.535156 17.554688 19.628906 C 16.976562 19.128906 16.542969 18.523438 16.253906 17.816406 C 16.253906 17.816406 16.433594 17.605469 16.675781 17.269531 C 16.867188 17.0625 17 16.820312 17.070312 16.546875 C 17.070312 16.394531 16.222656 14.25 16.011719 14.160156 C 15.679688 14.113281 15.347656 14.113281 15.015625 14.15625 Z M 15.015625 14.15625 " fill-opacity="1" fill-rule="nonzero"/></svg>