<svg xmlns="http://www.w3.org/2000/svg" xmlns:xlink="http://www.w3.org/1999/xlink" width="109" zoomAndPan="magnify" viewBox="0 0 81.75 48.75" height="65" preserveAspectRatio="xMidYMid meet" version="1.0"><defs><g/><clipPath id="fdabed0657"><path d="M 0.0859375 0 L 81.417969 0 L 81.417969 2 L 0.0859375 2 Z M 0.0859375 0 " clip-rule="nonzero"/></clipPath><clipPath id="c8d83a15c3"><path d="M 79 0 L 81.417969 0 L 81.417969 48.5 L 79 48.5 Z M 79 0 " clip-rule="nonzero"/></clipPath><clipPath id="ca8314ca18"><path d="M 0.0859375 46 L 81.417969 46 L 81.417969 48 L 0.0859375 48 Z M 0.0859375 46 " clip-rule="nonzero"/></clipPath><clipPath id="f465c80ee5"><path d="M 0.0859375 36 L 2 36 L 2 48.5 L 0.0859375 48.5 Z M 0.0859375 36 " clip-rule="nonzero"/></clipPath><clipPath id="711481f5b0"><path d="M 7.59375 5 L 56 5 L 56 36 L 7.59375 36 Z M 7.59375 5 " clip-rule="nonzero"/></clipPath><clipPath id="e1b2a0bf7c"><path d="M 8 4.046875 L 62.8125 4.046875 L 62.8125 36.132812 L 8 36.132812 Z M 8 4.046875 " clip-rule="nonzero"/></clipPath></defs><g clip-path="url(#fdabed0657)"><path stroke-linecap="butt" transform="matrix(0.746173, 0, 0, 0.746173, 0.968296, 0.481818)" fill="none" stroke-linejoin="miter" d="M 0.000607822 0.998085 L 107.439393 0.998085 " stroke="#ffcf00" stroke-width="2" stroke-opacity="1" stroke-miterlimit="4"/></g><g clip-path="url(#c8d83a15c3)"><path stroke-linecap="butt" transform="matrix(0, -0.746173, 0.746173, 0, 79.729127, 47.87316)" fill="none" stroke-linejoin="miter" d="M -0.00246564 1.001691 L 62.8704 1.001691 " stroke="#ffcf00" stroke-width="2" stroke-opacity="1" stroke-miterlimit="4"/></g><g clip-path="url(#ca8314ca18)"><path stroke-linecap="butt" transform="matrix(0.746173, 0, 0, 0.746173, 1.575629, 46.473792)" fill="none" stroke-linejoin="miter" d="M -0.00188958 0.99837 L 106.625464 0.99837 " stroke="#ffcf00" stroke-width="2" stroke-opacity="1" stroke-miterlimit="4"/></g><g clip-path="url(#f465c80ee5)"><path stroke-linecap="butt" transform="matrix(0, -0.746173, 0.746173, 0, 0.216522, 47.871642)" fill="none" stroke-linejoin="miter" d="M 0.000734202 0.997645 L 13.590906 0.997645 " stroke="#ffcf00" stroke-width="2" stroke-opacity="1" stroke-miterlimit="4"/></g><g clip-path="url(#711481f5b0)"><path fill="#ffffff" d="M 55.371094 7.53125 L 48.996094 11.300781 C 48.582031 11.226562 48.152344 11.199219 47.722656 11.199219 C 45.472656 11.199219 43.265625 12.160156 41.574219 13.707031 C 40.558594 14.636719 39.726562 15.796875 39.183594 17.085938 L 32.519531 21.042969 C 32.507812 20.871094 32.507812 20.683594 32.507812 20.511719 C 32.507812 18.847656 32.792969 17.230469 33.308594 15.710938 C 35.371094 9.667969 41.160156 5.183594 47.777344 5.183594 C 50.527344 5.226562 53.035156 6 55.371094 7.53125 Z M 27.707031 17.058594 L 22.09375 5.054688 L 21.90625 5.054688 L 7.59375 35.769531 L 16.519531 30.496094 L 18.367188 26.457031 L 22.035156 18.449219 L 25.1875 25.382812 L 30.199219 22.417969 Z M 27.707031 17.058594 " fill-opacity="1" fill-rule="nonzero"/></g><g clip-path="url(#e1b2a0bf7c)"><path fill="#ffcf00" d="M 39.140625 19.851562 C 39.082031 20.253906 39.054688 20.65625 39.054688 21.054688 C 39.054688 26.300781 43.722656 30.339844 48.265625 30.339844 C 50.972656 30.339844 53.308594 28.890625 55.257812 26.988281 L 58.652344 31.769531 C 56.058594 34.351562 52.90625 36.285156 48.453125 36.285156 C 42.921875 36.285156 38.066406 33.320312 35.359375 28.964844 C 34.371094 27.386719 33.683594 25.625 33.324219 23.761719 L 31.660156 24.878906 L 33.46875 28.734375 L 36.992188 36.285156 L 30.457031 36.285156 L 28.566406 32.101562 L 26.777344 28.148438 L 14.671875 36.269531 L 8.152344 36.269531 L 17.078125 30.996094 L 25.746094 25.882812 L 30.757812 22.917969 L 33.078125 21.542969 L 39.753906 17.601562 L 49.554688 11.816406 L 55.929688 8.046875 L 62.648438 4.078125 L 56.332031 8.320312 C 57.117188 8.878906 57.890625 9.507812 58.652344 10.238281 L 55.242188 14.894531 C 53.925781 13.605469 52.433594 12.632812 50.84375 12.128906 C 50.800781 12.117188 50.757812 12.101562 50.714844 12.085938 Z M 39.140625 19.851562 " fill-opacity="1" fill-rule="nonzero"/></g><g fill="#ffffff" fill-opacity="1"><g transform="translate(10.036851, 45.293157)"><g><path d="M 0.234375 -2.703125 C 0.234375 -3.234375 0.335938 -3.707031 0.546875 -4.125 C 0.765625 -4.539062 1.070312 -4.863281 1.46875 -5.09375 C 1.875 -5.320312 2.347656 -5.4375 2.890625 -5.4375 C 3.359375 -5.4375 3.773438 -5.347656 4.140625 -5.171875 C 4.503906 -5.003906 4.800781 -4.757812 5.03125 -4.4375 C 5.269531 -4.113281 5.425781 -3.738281 5.5 -3.3125 L 3.71875 -3.3125 C 3.632812 -3.488281 3.519531 -3.625 3.375 -3.71875 C 3.226562 -3.820312 3.054688 -3.875 2.859375 -3.875 C 2.578125 -3.875 2.351562 -3.765625 2.1875 -3.546875 C 2.019531 -3.335938 1.9375 -3.054688 1.9375 -2.703125 C 1.9375 -2.335938 2.019531 -2.046875 2.1875 -1.828125 C 2.351562 -1.617188 2.578125 -1.515625 2.859375 -1.515625 C 3.054688 -1.515625 3.226562 -1.5625 3.375 -1.65625 C 3.519531 -1.757812 3.632812 -1.898438 3.71875 -2.078125 L 5.5 -2.078125 C 5.425781 -1.660156 5.269531 -1.289062 5.03125 -0.96875 C 4.800781 -0.644531 4.503906 -0.394531 4.140625 -0.21875 C 3.773438 -0.0507812 3.359375 0.03125 2.890625 0.03125 C 2.347656 0.03125 1.875 -0.0820312 1.46875 -0.3125 C 1.070312 -0.539062 0.765625 -0.863281 0.546875 -1.28125 C 0.335938 -1.695312 0.234375 -2.171875 0.234375 -2.703125 Z M 0.234375 -2.703125 "/></g></g></g><g fill="#ffffff" fill-opacity="1"><g transform="translate(15.771729, 45.293157)"><g><path d="M 2.0625 -1.28125 L 3.703125 -1.28125 L 3.703125 0 L 0.375 0 L 0.375 -5.390625 L 2.0625 -5.390625 Z M 2.0625 -1.28125 "/></g></g></g><g fill="#ffffff" fill-opacity="1"><g transform="translate(19.625444, 45.293157)"><g><path d="M 2.03125 -5.390625 L 2.03125 -2.34375 C 2.03125 -2.101562 2.082031 -1.910156 2.1875 -1.765625 C 2.300781 -1.617188 2.476562 -1.546875 2.71875 -1.546875 C 2.96875 -1.546875 3.148438 -1.617188 3.265625 -1.765625 C 3.378906 -1.910156 3.4375 -2.101562 3.4375 -2.34375 L 3.4375 -5.390625 L 5.125 -5.390625 L 5.125 -2.34375 C 5.125 -1.832031 5.015625 -1.394531 4.796875 -1.03125 C 4.585938 -0.675781 4.296875 -0.40625 3.921875 -0.21875 C 3.554688 -0.0390625 3.144531 0.046875 2.6875 0.046875 C 2.226562 0.046875 1.820312 -0.0390625 1.46875 -0.21875 C 1.113281 -0.40625 0.835938 -0.675781 0.640625 -1.03125 C 0.441406 -1.394531 0.34375 -1.832031 0.34375 -2.34375 L 0.34375 -5.390625 Z M 2.03125 -5.390625 "/></g></g></g><g fill="#ffffff" fill-opacity="1"><g transform="translate(25.101376, 45.293157)"><g><path d="M 3.984375 -2.765625 C 4.304688 -2.679688 4.554688 -2.519531 4.734375 -2.28125 C 4.921875 -2.050781 5.015625 -1.78125 5.015625 -1.46875 C 5.015625 -1 4.859375 -0.632812 4.546875 -0.375 C 4.234375 -0.125 3.785156 0 3.203125 0 L 0.375 0 L 0.375 -5.390625 L 3.125 -5.390625 C 3.675781 -5.390625 4.109375 -5.269531 4.421875 -5.03125 C 4.734375 -4.789062 4.890625 -4.441406 4.890625 -3.984375 C 4.890625 -3.671875 4.804688 -3.40625 4.640625 -3.1875 C 4.472656 -2.976562 4.253906 -2.835938 3.984375 -2.765625 Z M 2.0625 -3.28125 L 2.71875 -3.28125 C 2.875 -3.28125 2.988281 -3.3125 3.0625 -3.375 C 3.132812 -3.4375 3.171875 -3.53125 3.171875 -3.65625 C 3.171875 -3.789062 3.132812 -3.890625 3.0625 -3.953125 C 2.988281 -4.015625 2.875 -4.046875 2.71875 -4.046875 L 2.0625 -4.046875 Z M 2.84375 -1.359375 C 2.988281 -1.359375 3.097656 -1.382812 3.171875 -1.4375 C 3.242188 -1.5 3.28125 -1.597656 3.28125 -1.734375 C 3.28125 -1.984375 3.132812 -2.109375 2.84375 -2.109375 L 2.0625 -2.109375 L 2.0625 -1.359375 Z M 2.84375 -1.359375 "/></g></g></g><g fill="#ffffff" fill-opacity="1"><g transform="translate(30.310746, 45.293157)"><g><path d="M 2.0625 -4.046875 L 2.0625 -3.375 L 3.75 -3.375 L 3.75 -2.109375 L 2.0625 -2.109375 L 2.0625 -1.34375 L 3.96875 -1.34375 L 3.96875 0 L 0.375 0 L 0.375 -5.390625 L 3.96875 -5.390625 L 3.96875 -4.046875 Z M 2.0625 -4.046875 "/></g></g></g><g fill="#ffffff" fill-opacity="1"><g transform="translate(37.211194, 44.782306)"><g><path d="M 1.3125 -4.375 L 1.3125 0 L 0.3125 0 L 0.3125 -4.375 Z M 1.3125 -4.375 "/></g></g></g><g fill="#ffffff" fill-opacity="1"><g transform="translate(38.576503, 44.782306)"><g><path d="M 1.3125 -2.71875 L 1.3125 0 L 0.3125 0 L 0.3125 -4.375 L 1.3125 -4.375 L 3.046875 -1.65625 L 3.0625 -1.65625 L 3.0625 -4.375 L 4.0625 -4.375 L 4.0625 0 L 3.0625 0 L 1.328125 -2.71875 Z M 1.3125 -2.71875 "/></g></g></g><g fill="#ffffff" fill-opacity="1"><g transform="translate(42.683014, 44.782306)"><g><path d="M 1.3125 -1.75 L 1.3125 0 L 0.3125 0 L 0.3125 -4.375 L 1.3125 -4.375 L 1.3125 -2.625 L 2.71875 -2.625 L 2.71875 -4.375 L 3.71875 -4.375 L 3.71875 0 L 2.71875 0 L 2.71875 -1.75 Z M 1.3125 -1.75 "/></g></g></g><g fill="#ffffff" fill-opacity="1"><g transform="translate(46.450843, 44.782306)"><g><path d="M 2.53125 -4.375 L 4.296875 0 L 3.234375 0 L 2.90625 -0.875 L 1.25 -0.875 L 0.921875 0 L -0.140625 0 L 1.609375 -4.375 Z M 2.5625 -1.75 L 2.078125 -3.015625 L 1.578125 -1.75 Z M 2.5625 -1.75 "/></g></g></g><g fill="#ffffff" fill-opacity="1"><g transform="translate(50.335094, 44.782306)"><g><path d="M 0.3125 -4.375 L 1.90625 -4.375 C 2.351562 -4.375 2.710938 -4.257812 2.984375 -4.03125 C 3.265625 -3.800781 3.40625 -3.46875 3.40625 -3.03125 C 3.40625 -2.59375 3.265625 -2.25 2.984375 -2 C 2.703125 -1.75 2.34375 -1.625 1.90625 -1.625 L 1.3125 -1.625 L 1.3125 0 L 0.3125 0 Z M 1.3125 -2.421875 L 1.59375 -2.421875 C 1.8125 -2.421875 1.992188 -2.460938 2.140625 -2.546875 C 2.285156 -2.640625 2.359375 -2.789062 2.359375 -3 C 2.359375 -3.207031 2.285156 -3.351562 2.140625 -3.4375 C 1.992188 -3.53125 1.8125 -3.578125 1.59375 -3.578125 L 1.3125 -3.578125 Z M 1.3125 -2.421875 "/></g></g></g><g fill="#ffffff" fill-opacity="1"><g transform="translate(53.594901, 44.782306)"><g><path d="M 1.3125 -4.375 L 1.3125 0 L 0.3125 0 L 0.3125 -4.375 Z M 1.3125 -4.375 "/></g></g></g><g fill="#ffffff" fill-opacity="1"><g transform="translate(54.96021, 44.782306)"><g><path d="M 3.9375 0 L 3.71875 -2.59375 L 3.703125 -2.59375 L 2.796875 -0.03125 L 2.203125 -0.03125 L 1.3125 -2.59375 L 1.28125 -2.59375 L 1.078125 0 L 0.078125 0 L 0.484375 -4.375 L 1.53125 -4.375 L 2.5 -1.84375 L 3.46875 -4.375 L 4.53125 -4.375 L 4.921875 0 Z M 3.9375 0 "/></g></g></g><g fill="#ffffff" fill-opacity="1"><g transform="translate(59.701748, 44.782306)"><g><path d="M 0.3125 -1.9375 L 2.015625 -1.9375 L 2.015625 -1.125 L 0.3125 -1.125 Z M 0.3125 -1.9375 "/></g></g></g><g fill="#ffffff" fill-opacity="1"><g transform="translate(61.776171, 44.782306)"><g><path d="M 3.9375 0 L 3.71875 -2.59375 L 3.703125 -2.59375 L 2.796875 -0.03125 L 2.203125 -0.03125 L 1.3125 -2.59375 L 1.28125 -2.59375 L 1.078125 0 L 0.078125 0 L 0.484375 -4.375 L 1.53125 -4.375 L 2.5 -1.84375 L 3.46875 -4.375 L 4.53125 -4.375 L 4.921875 0 Z M 3.9375 0 "/></g></g></g><g fill="#ffffff" fill-opacity="1"><g transform="translate(66.51771, 44.782306)"><g><path d="M 4.265625 -2.453125 L 4.265625 -1.5 C 4.148438 -0.976562 3.898438 -0.582031 3.515625 -0.3125 C 3.140625 -0.0507812 2.71875 0.078125 2.25 0.078125 C 1.65625 0.078125 1.148438 -0.140625 0.734375 -0.578125 C 0.328125 -1.023438 0.125 -1.5625 0.125 -2.1875 C 0.125 -2.820312 0.328125 -3.359375 0.734375 -3.796875 C 1.140625 -4.234375 1.644531 -4.453125 2.25 -4.453125 C 2.957031 -4.453125 3.519531 -4.203125 3.9375 -3.703125 L 3.28125 -2.984375 C 3.050781 -3.359375 2.726562 -3.546875 2.3125 -3.546875 C 2 -3.546875 1.734375 -3.410156 1.515625 -3.140625 C 1.304688 -2.878906 1.203125 -2.5625 1.203125 -2.1875 C 1.203125 -1.8125 1.304688 -1.492188 1.515625 -1.234375 C 1.734375 -0.972656 2 -0.84375 2.3125 -0.84375 C 2.5625 -0.84375 2.78125 -0.914062 2.96875 -1.0625 C 3.15625 -1.21875 3.25 -1.421875 3.25 -1.671875 L 2.25 -1.671875 L 2.25 -2.453125 Z M 4.265625 -2.453125 "/></g></g></g></svg>