<svg xmlns="http://www.w3.org/2000/svg" xmlns:xlink="http://www.w3.org/1999/xlink" width="190" zoomAndPan="magnify" viewBox="0 0 142.5 30.000001" height="40" preserveAspectRatio="xMidYMid meet" version="1.0"><defs><g/><clipPath id="451ff5fda6"><path d="M 5.683594 4 L 39 4 L 39 25.878906 L 5.683594 25.878906 Z M 5.683594 4 " clip-rule="nonzero"/></clipPath><clipPath id="ef9c6706e8"><path d="M 6 3.378906 L 43.425781 3.378906 L 43.425781 25.878906 L 6 25.878906 Z M 6 3.378906 " clip-rule="nonzero"/></clipPath></defs><g clip-path="url(#451ff5fda6)"><path fill="#ffffff" d="M 38.65625 5.785156 L 34.253906 8.386719 C 33.96875 8.335938 33.671875 8.316406 33.375 8.316406 C 31.824219 8.316406 30.300781 8.980469 29.136719 10.046875 C 28.433594 10.6875 27.859375 11.488281 27.484375 12.378906 L 22.886719 15.109375 C 22.878906 14.988281 22.878906 14.859375 22.878906 14.742188 C 22.878906 13.59375 23.074219 12.480469 23.429688 11.429688 C 24.855469 7.257812 28.847656 4.164062 33.414062 4.164062 C 35.3125 4.195312 37.042969 4.726562 38.65625 5.785156 Z M 19.566406 12.359375 L 15.691406 4.074219 L 15.5625 4.074219 L 5.683594 25.269531 L 11.84375 21.632812 L 13.121094 18.84375 L 15.652344 13.320312 L 17.824219 18.105469 L 21.285156 16.058594 Z M 19.566406 12.359375 " fill-opacity="1" fill-rule="nonzero"/></g><g clip-path="url(#ef9c6706e8)"><path fill="#ffcf00" d="M 27.453125 14.289062 C 27.414062 14.5625 27.394531 14.839844 27.394531 15.117188 C 27.394531 18.734375 30.617188 21.523438 33.75 21.523438 C 35.621094 21.523438 37.230469 20.527344 38.574219 19.210938 L 40.917969 22.511719 C 39.128906 24.292969 36.953125 25.625 33.878906 25.625 C 30.0625 25.625 26.710938 23.582031 24.84375 20.574219 C 24.164062 19.488281 23.6875 18.273438 23.441406 16.988281 L 22.292969 17.757812 L 23.539062 20.417969 L 25.972656 25.625 L 21.464844 25.625 L 20.160156 22.738281 L 18.921875 20.011719 L 10.570312 25.617188 L 6.070312 25.617188 L 12.230469 21.980469 L 18.210938 18.449219 L 21.671875 16.402344 L 23.273438 15.453125 L 27.878906 12.734375 L 34.640625 8.742188 L 39.039062 6.140625 L 43.675781 3.402344 L 39.316406 6.328125 C 39.859375 6.714844 40.394531 7.148438 40.917969 7.652344 L 38.566406 10.867188 C 37.65625 9.976562 36.628906 9.304688 35.53125 8.960938 C 35.5 8.949219 35.472656 8.9375 35.441406 8.929688 Z M 27.453125 14.289062 " fill-opacity="1" fill-rule="nonzero"/></g><g fill="#ffffff" fill-opacity="1"><g transform="translate(47.020632, 12.13646)"><g><path d="M 4.234375 -1.34375 L 1.59375 -1.34375 L 1.109375 0 L 0.28125 0 L 2.46875 -6 L 3.375 -6 L 5.546875 0 L 4.71875 0 Z M 4.015625 -1.984375 L 2.921875 -5.03125 L 1.828125 -1.984375 Z M 4.015625 -1.984375 "/></g></g></g><g fill="#ffffff" fill-opacity="1"><g transform="translate(52.858025, 12.13646)"><g><path d="M 2.578125 0.0625 C 2.179688 0.0625 1.820312 -0.00390625 1.5 -0.140625 C 1.1875 -0.285156 0.941406 -0.484375 0.765625 -0.734375 C 0.585938 -0.984375 0.5 -1.273438 0.5 -1.609375 L 1.328125 -1.609375 C 1.359375 -1.328125 1.472656 -1.085938 1.671875 -0.890625 C 1.878906 -0.703125 2.179688 -0.609375 2.578125 -0.609375 C 2.953125 -0.609375 3.25 -0.703125 3.46875 -0.890625 C 3.6875 -1.078125 3.796875 -1.316406 3.796875 -1.609375 C 3.796875 -1.835938 3.726562 -2.023438 3.59375 -2.171875 C 3.46875 -2.316406 3.3125 -2.425781 3.125 -2.5 C 2.9375 -2.570312 2.679688 -2.65625 2.359375 -2.75 C 1.953125 -2.851562 1.628906 -2.957031 1.390625 -3.0625 C 1.148438 -3.164062 0.945312 -3.328125 0.78125 -3.546875 C 0.613281 -3.765625 0.53125 -4.0625 0.53125 -4.4375 C 0.53125 -4.769531 0.613281 -5.0625 0.78125 -5.3125 C 0.945312 -5.570312 1.179688 -5.769531 1.484375 -5.90625 C 1.785156 -6.039062 2.132812 -6.109375 2.53125 -6.109375 C 3.09375 -6.109375 3.550781 -5.96875 3.90625 -5.6875 C 4.269531 -5.40625 4.476562 -5.03125 4.53125 -4.5625 L 3.65625 -4.5625 C 3.632812 -4.789062 3.515625 -4.992188 3.296875 -5.171875 C 3.085938 -5.347656 2.804688 -5.4375 2.453125 -5.4375 C 2.117188 -5.4375 1.847656 -5.347656 1.640625 -5.171875 C 1.429688 -5.003906 1.328125 -4.769531 1.328125 -4.46875 C 1.328125 -4.25 1.390625 -4.066406 1.515625 -3.921875 C 1.640625 -3.785156 1.789062 -3.679688 1.96875 -3.609375 C 2.15625 -3.535156 2.414062 -3.457031 2.75 -3.375 C 3.144531 -3.257812 3.460938 -3.144531 3.703125 -3.03125 C 3.941406 -2.925781 4.148438 -2.765625 4.328125 -2.546875 C 4.503906 -2.328125 4.59375 -2.023438 4.59375 -1.640625 C 4.59375 -1.347656 4.515625 -1.070312 4.359375 -0.8125 C 4.203125 -0.550781 3.96875 -0.335938 3.65625 -0.171875 C 3.351562 -0.015625 2.992188 0.0625 2.578125 0.0625 Z M 2.578125 0.0625 "/></g></g></g><g fill="#ffffff" fill-opacity="1"><g transform="translate(57.941928, 12.13646)"><g><path d="M 2.578125 0.0625 C 2.179688 0.0625 1.820312 -0.00390625 1.5 -0.140625 C 1.1875 -0.285156 0.941406 -0.484375 0.765625 -0.734375 C 0.585938 -0.984375 0.5 -1.273438 0.5 -1.609375 L 1.328125 -1.609375 C 1.359375 -1.328125 1.472656 -1.085938 1.671875 -0.890625 C 1.878906 -0.703125 2.179688 -0.609375 2.578125 -0.609375 C 2.953125 -0.609375 3.25 -0.703125 3.46875 -0.890625 C 3.6875 -1.078125 3.796875 -1.316406 3.796875 -1.609375 C 3.796875 -1.835938 3.726562 -2.023438 3.59375 -2.171875 C 3.46875 -2.316406 3.3125 -2.425781 3.125 -2.5 C 2.9375 -2.570312 2.679688 -2.65625 2.359375 -2.75 C 1.953125 -2.851562 1.628906 -2.957031 1.390625 -3.0625 C 1.148438 -3.164062 0.945312 -3.328125 0.78125 -3.546875 C 0.613281 -3.765625 0.53125 -4.0625 0.53125 -4.4375 C 0.53125 -4.769531 0.613281 -5.0625 0.78125 -5.3125 C 0.945312 -5.570312 1.179688 -5.769531 1.484375 -5.90625 C 1.785156 -6.039062 2.132812 -6.109375 2.53125 -6.109375 C 3.09375 -6.109375 3.550781 -5.96875 3.90625 -5.6875 C 4.269531 -5.40625 4.476562 -5.03125 4.53125 -4.5625 L 3.65625 -4.5625 C 3.632812 -4.789062 3.515625 -4.992188 3.296875 -5.171875 C 3.085938 -5.347656 2.804688 -5.4375 2.453125 -5.4375 C 2.117188 -5.4375 1.847656 -5.347656 1.640625 -5.171875 C 1.429688 -5.003906 1.328125 -4.769531 1.328125 -4.46875 C 1.328125 -4.25 1.390625 -4.066406 1.515625 -3.921875 C 1.640625 -3.785156 1.789062 -3.679688 1.96875 -3.609375 C 2.15625 -3.535156 2.414062 -3.457031 2.75 -3.375 C 3.144531 -3.257812 3.460938 -3.144531 3.703125 -3.03125 C 3.941406 -2.925781 4.148438 -2.765625 4.328125 -2.546875 C 4.503906 -2.328125 4.59375 -2.023438 4.59375 -1.640625 C 4.59375 -1.347656 4.515625 -1.070312 4.359375 -0.8125 C 4.203125 -0.550781 3.96875 -0.335938 3.65625 -0.171875 C 3.351562 -0.015625 2.992188 0.0625 2.578125 0.0625 Z M 2.578125 0.0625 "/></g></g></g><g fill="#ffffff" fill-opacity="1"><g transform="translate(63.025831, 12.13646)"><g><path d="M 3.40625 0.0625 C 2.84375 0.0625 2.328125 -0.0664062 1.859375 -0.328125 C 1.398438 -0.597656 1.035156 -0.96875 0.765625 -1.4375 C 0.503906 -1.90625 0.375 -2.429688 0.375 -3.015625 C 0.375 -3.609375 0.503906 -4.140625 0.765625 -4.609375 C 1.035156 -5.078125 1.398438 -5.441406 1.859375 -5.703125 C 2.328125 -5.972656 2.84375 -6.109375 3.40625 -6.109375 C 3.96875 -6.109375 4.476562 -5.972656 4.9375 -5.703125 C 5.40625 -5.441406 5.769531 -5.078125 6.03125 -4.609375 C 6.300781 -4.140625 6.4375 -3.609375 6.4375 -3.015625 C 6.4375 -2.421875 6.300781 -1.890625 6.03125 -1.421875 C 5.769531 -0.960938 5.40625 -0.597656 4.9375 -0.328125 C 4.476562 -0.0664062 3.96875 0.0625 3.40625 0.0625 Z M 3.40625 -0.625 C 3.820312 -0.625 4.195312 -0.722656 4.53125 -0.921875 C 4.875 -1.117188 5.140625 -1.394531 5.328125 -1.75 C 5.523438 -2.113281 5.625 -2.535156 5.625 -3.015625 C 5.625 -3.503906 5.523438 -3.925781 5.328125 -4.28125 C 5.140625 -4.644531 4.878906 -4.925781 4.546875 -5.125 C 4.210938 -5.320312 3.832031 -5.421875 3.40625 -5.421875 C 2.976562 -5.421875 2.59375 -5.320312 2.25 -5.125 C 1.914062 -4.925781 1.648438 -4.644531 1.453125 -4.28125 C 1.265625 -3.925781 1.171875 -3.503906 1.171875 -3.015625 C 1.171875 -2.535156 1.265625 -2.113281 1.453125 -1.75 C 1.648438 -1.394531 1.914062 -1.117188 2.25 -0.921875 C 2.59375 -0.722656 2.976562 -0.625 3.40625 -0.625 Z M 3.40625 -0.625 "/></g></g></g><g fill="#ffffff" fill-opacity="1"><g transform="translate(69.833235, 12.13646)"><g><path d="M 0.375 -3.015625 C 0.375 -3.609375 0.503906 -4.140625 0.765625 -4.609375 C 1.035156 -5.078125 1.398438 -5.441406 1.859375 -5.703125 C 2.316406 -5.972656 2.828125 -6.109375 3.390625 -6.109375 C 4.046875 -6.109375 4.617188 -5.945312 5.109375 -5.625 C 5.597656 -5.3125 5.957031 -4.863281 6.1875 -4.28125 L 5.234375 -4.28125 C 5.066406 -4.644531 4.828125 -4.925781 4.515625 -5.125 C 4.203125 -5.320312 3.828125 -5.421875 3.390625 -5.421875 C 2.960938 -5.421875 2.582031 -5.320312 2.25 -5.125 C 1.914062 -4.925781 1.648438 -4.644531 1.453125 -4.28125 C 1.265625 -3.925781 1.171875 -3.503906 1.171875 -3.015625 C 1.171875 -2.535156 1.265625 -2.113281 1.453125 -1.75 C 1.648438 -1.394531 1.914062 -1.117188 2.25 -0.921875 C 2.582031 -0.722656 2.960938 -0.625 3.390625 -0.625 C 3.828125 -0.625 4.203125 -0.722656 4.515625 -0.921875 C 4.828125 -1.117188 5.066406 -1.394531 5.234375 -1.75 L 6.1875 -1.75 C 5.957031 -1.175781 5.597656 -0.734375 5.109375 -0.421875 C 4.617188 -0.109375 4.046875 0.046875 3.390625 0.046875 C 2.828125 0.046875 2.316406 -0.0820312 1.859375 -0.34375 C 1.398438 -0.601562 1.035156 -0.96875 0.765625 -1.4375 C 0.503906 -1.90625 0.375 -2.429688 0.375 -3.015625 Z M 0.375 -3.015625 "/></g></g></g><g fill="#ffffff" fill-opacity="1"><g transform="translate(76.51939, 12.13646)"><g><path d="M 1.453125 -6.03125 L 1.453125 0 L 0.671875 0 L 0.671875 -6.03125 Z M 1.453125 -6.03125 "/></g></g></g><g fill="#ffffff" fill-opacity="1"><g transform="translate(78.649955, 12.13646)"><g><path d="M 4.234375 -1.34375 L 1.59375 -1.34375 L 1.109375 0 L 0.28125 0 L 2.46875 -6 L 3.375 -6 L 5.546875 0 L 4.71875 0 Z M 4.015625 -1.984375 L 2.921875 -5.03125 L 1.828125 -1.984375 Z M 4.015625 -1.984375 "/></g></g></g><g fill="#ffffff" fill-opacity="1"><g transform="translate(84.487349, 12.13646)"><g><path d="M 3.390625 -0.625 C 3.828125 -0.625 4.203125 -0.722656 4.515625 -0.921875 C 4.828125 -1.117188 5.066406 -1.394531 5.234375 -1.75 L 6.1875 -1.75 C 5.976562 -1.21875 5.65625 -0.796875 5.21875 -0.484375 C 4.78125 -0.179688 4.269531 -0.00390625 3.6875 0.046875 L 3.6875 0.5 C 4.03125 0.5 4.300781 0.570312 4.5 0.71875 C 4.695312 0.863281 4.796875 1.078125 4.796875 1.359375 C 4.796875 1.628906 4.695312 1.84375 4.5 2 C 4.3125 2.164062 4.0625 2.25 3.75 2.25 L 2.75 2.25 L 2.75 1.734375 L 3.59375 1.734375 C 3.78125 1.734375 3.914062 1.703125 4 1.640625 C 4.09375 1.585938 4.140625 1.492188 4.140625 1.359375 C 4.140625 1.222656 4.09375 1.125 4 1.0625 C 3.914062 1.007812 3.78125 0.984375 3.59375 0.984375 L 3.15625 0.984375 L 3.15625 0.046875 C 2.632812 0.00390625 2.160156 -0.144531 1.734375 -0.40625 C 1.304688 -0.675781 0.972656 -1.035156 0.734375 -1.484375 C 0.492188 -1.941406 0.375 -2.453125 0.375 -3.015625 C 0.375 -3.609375 0.503906 -4.140625 0.765625 -4.609375 C 1.035156 -5.078125 1.398438 -5.441406 1.859375 -5.703125 C 2.316406 -5.972656 2.828125 -6.109375 3.390625 -6.109375 C 4.046875 -6.109375 4.617188 -5.945312 5.109375 -5.625 C 5.597656 -5.3125 5.957031 -4.863281 6.1875 -4.28125 L 5.234375 -4.28125 C 5.066406 -4.644531 4.828125 -4.925781 4.515625 -5.125 C 4.203125 -5.320312 3.828125 -5.421875 3.390625 -5.421875 C 2.960938 -5.421875 2.582031 -5.320312 2.25 -5.125 C 1.914062 -4.925781 1.648438 -4.644531 1.453125 -4.28125 C 1.265625 -3.925781 1.171875 -3.503906 1.171875 -3.015625 C 1.171875 -2.535156 1.265625 -2.113281 1.453125 -1.75 C 1.648438 -1.394531 1.914062 -1.117188 2.25 -0.921875 C 2.582031 -0.722656 2.960938 -0.625 3.390625 -0.625 Z M 3.390625 -0.625 "/></g></g></g><g fill="#ffffff" fill-opacity="1"><g transform="translate(91.173503, 12.13646)"><g><path d="M 4.234375 -1.34375 L 1.59375 -1.34375 L 1.109375 0 L 0.28125 0 L 2.46875 -6 L 3.375 -6 L 5.546875 0 L 4.71875 0 Z M 4.015625 -1.984375 L 2.921875 -5.03125 L 1.828125 -1.984375 Z M 1.640625 -6.5 C 1.679688 -6.800781 1.78125 -7.023438 1.9375 -7.171875 C 2.09375 -7.328125 2.285156 -7.40625 2.515625 -7.40625 C 2.617188 -7.40625 2.707031 -7.382812 2.78125 -7.34375 C 2.863281 -7.3125 2.960938 -7.265625 3.078125 -7.203125 C 3.160156 -7.140625 3.234375 -7.09375 3.296875 -7.0625 C 3.359375 -7.03125 3.425781 -7.015625 3.5 -7.015625 C 3.59375 -7.015625 3.675781 -7.046875 3.75 -7.109375 C 3.820312 -7.171875 3.863281 -7.265625 3.875 -7.390625 L 4.328125 -7.390625 C 4.296875 -7.097656 4.203125 -6.875 4.046875 -6.71875 C 3.890625 -6.5625 3.695312 -6.484375 3.46875 -6.484375 C 3.351562 -6.484375 3.253906 -6.5 3.171875 -6.53125 C 3.085938 -6.570312 2.992188 -6.632812 2.890625 -6.71875 C 2.796875 -6.769531 2.722656 -6.8125 2.671875 -6.84375 C 2.617188 -6.875 2.554688 -6.890625 2.484375 -6.890625 C 2.378906 -6.890625 2.289062 -6.851562 2.21875 -6.78125 C 2.15625 -6.71875 2.117188 -6.625 2.109375 -6.5 Z M 1.640625 -6.5 "/></g></g></g><g fill="#ffffff" fill-opacity="1"><g transform="translate(97.010896, 12.13646)"><g><path d="M 3.40625 0.0625 C 2.84375 0.0625 2.328125 -0.0664062 1.859375 -0.328125 C 1.398438 -0.597656 1.035156 -0.96875 0.765625 -1.4375 C 0.503906 -1.90625 0.375 -2.429688 0.375 -3.015625 C 0.375 -3.609375 0.503906 -4.140625 0.765625 -4.609375 C 1.035156 -5.078125 1.398438 -5.441406 1.859375 -5.703125 C 2.328125 -5.972656 2.84375 -6.109375 3.40625 -6.109375 C 3.96875 -6.109375 4.476562 -5.972656 4.9375 -5.703125 C 5.40625 -5.441406 5.769531 -5.078125 6.03125 -4.609375 C 6.300781 -4.140625 6.4375 -3.609375 6.4375 -3.015625 C 6.4375 -2.421875 6.300781 -1.890625 6.03125 -1.421875 C 5.769531 -0.960938 5.40625 -0.597656 4.9375 -0.328125 C 4.476562 -0.0664062 3.96875 0.0625 3.40625 0.0625 Z M 3.40625 -0.625 C 3.820312 -0.625 4.195312 -0.722656 4.53125 -0.921875 C 4.875 -1.117188 5.140625 -1.394531 5.328125 -1.75 C 5.523438 -2.113281 5.625 -2.535156 5.625 -3.015625 C 5.625 -3.503906 5.523438 -3.925781 5.328125 -4.28125 C 5.140625 -4.644531 4.878906 -4.925781 4.546875 -5.125 C 4.210938 -5.320312 3.832031 -5.421875 3.40625 -5.421875 C 2.976562 -5.421875 2.59375 -5.320312 2.25 -5.125 C 1.914062 -4.925781 1.648438 -4.644531 1.453125 -4.28125 C 1.265625 -3.925781 1.171875 -3.503906 1.171875 -3.015625 C 1.171875 -2.535156 1.265625 -2.113281 1.453125 -1.75 C 1.648438 -1.394531 1.914062 -1.117188 2.25 -0.921875 C 2.59375 -0.722656 2.976562 -0.625 3.40625 -0.625 Z M 3.40625 -0.625 "/></g></g></g><g fill="#ffffff" fill-opacity="1"><g transform="translate(47.746439, 21.22618)"><g><path d="M 0.375 -3.015625 C 0.375 -3.609375 0.503906 -4.140625 0.765625 -4.609375 C 1.035156 -5.078125 1.398438 -5.441406 1.859375 -5.703125 C 2.316406 -5.972656 2.828125 -6.109375 3.390625 -6.109375 C 4.046875 -6.109375 4.617188 -5.945312 5.109375 -5.625 C 5.597656 -5.3125 5.957031 -4.863281 6.1875 -4.28125 L 5.234375 -4.28125 C 5.066406 -4.644531 4.828125 -4.925781 4.515625 -5.125 C 4.203125 -5.320312 3.828125 -5.421875 3.390625 -5.421875 C 2.960938 -5.421875 2.582031 -5.320312 2.25 -5.125 C 1.914062 -4.925781 1.648438 -4.644531 1.453125 -4.28125 C 1.265625 -3.925781 1.171875 -3.503906 1.171875 -3.015625 C 1.171875 -2.535156 1.265625 -2.113281 1.453125 -1.75 C 1.648438 -1.394531 1.914062 -1.117188 2.25 -0.921875 C 2.582031 -0.722656 2.960938 -0.625 3.390625 -0.625 C 3.828125 -0.625 4.203125 -0.722656 4.515625 -0.921875 C 4.828125 -1.117188 5.066406 -1.394531 5.234375 -1.75 L 6.1875 -1.75 C 5.957031 -1.175781 5.597656 -0.734375 5.109375 -0.421875 C 4.617188 -0.109375 4.046875 0.046875 3.390625 0.046875 C 2.828125 0.046875 2.316406 -0.0820312 1.859375 -0.34375 C 1.398438 -0.601562 1.035156 -0.96875 0.765625 -1.4375 C 0.503906 -1.90625 0.375 -2.429688 0.375 -3.015625 Z M 0.375 -3.015625 "/></g></g></g><g fill="#ffffff" fill-opacity="1"><g transform="translate(54.432594, 21.22618)"><g><path d="M 3.40625 0.0625 C 2.84375 0.0625 2.328125 -0.0664062 1.859375 -0.328125 C 1.398438 -0.597656 1.035156 -0.96875 0.765625 -1.4375 C 0.503906 -1.90625 0.375 -2.429688 0.375 -3.015625 C 0.375 -3.609375 0.503906 -4.140625 0.765625 -4.609375 C 1.035156 -5.078125 1.398438 -5.441406 1.859375 -5.703125 C 2.328125 -5.972656 2.84375 -6.109375 3.40625 -6.109375 C 3.96875 -6.109375 4.476562 -5.972656 4.9375 -5.703125 C 5.40625 -5.441406 5.769531 -5.078125 6.03125 -4.609375 C 6.300781 -4.140625 6.4375 -3.609375 6.4375 -3.015625 C 6.4375 -2.421875 6.300781 -1.890625 6.03125 -1.421875 C 5.769531 -0.960938 5.40625 -0.597656 4.9375 -0.328125 C 4.476562 -0.0664062 3.96875 0.0625 3.40625 0.0625 Z M 3.40625 -0.625 C 3.820312 -0.625 4.195312 -0.722656 4.53125 -0.921875 C 4.875 -1.117188 5.140625 -1.394531 5.328125 -1.75 C 5.523438 -2.113281 5.625 -2.535156 5.625 -3.015625 C 5.625 -3.503906 5.523438 -3.925781 5.328125 -4.28125 C 5.140625 -4.644531 4.878906 -4.925781 4.546875 -5.125 C 4.210938 -5.320312 3.832031 -5.421875 3.40625 -5.421875 C 2.976562 -5.421875 2.59375 -5.320312 2.25 -5.125 C 1.914062 -4.925781 1.648438 -4.644531 1.453125 -4.28125 C 1.265625 -3.925781 1.171875 -3.503906 1.171875 -3.015625 C 1.171875 -2.535156 1.265625 -2.113281 1.453125 -1.75 C 1.648438 -1.394531 1.914062 -1.117188 2.25 -0.921875 C 2.59375 -0.722656 2.976562 -0.625 3.40625 -0.625 Z M 3.40625 -0.625 "/></g></g></g><g fill="#ffffff" fill-opacity="1"><g transform="translate(61.239998, 21.22618)"><g><path d="M 6.78125 -5.984375 L 6.78125 0 L 6 0 L 6 -4.46875 L 4.015625 0 L 3.453125 0 L 1.453125 -4.46875 L 1.453125 0 L 0.671875 0 L 0.671875 -5.984375 L 1.515625 -5.984375 L 3.734375 -1.03125 L 5.953125 -5.984375 Z M 6.78125 -5.984375 "/></g></g></g><g fill="#ffffff" fill-opacity="1"><g transform="translate(68.696966, 21.22618)"><g><path d="M 1.453125 -5.390625 L 1.453125 -3.375 L 3.65625 -3.375 L 3.65625 -2.734375 L 1.453125 -2.734375 L 1.453125 -0.65625 L 3.90625 -0.65625 L 3.90625 0 L 0.671875 0 L 0.671875 -6.046875 L 3.90625 -6.046875 L 3.90625 -5.390625 Z M 1.453125 -5.390625 "/></g></g></g><g fill="#ffffff" fill-opacity="1"><g transform="translate(73.139962, 21.22618)"><g><path d="M 3.84375 0 L 2.40625 -2.46875 L 1.453125 -2.46875 L 1.453125 0 L 0.671875 0 L 0.671875 -6.03125 L 2.609375 -6.03125 C 3.066406 -6.03125 3.453125 -5.953125 3.765625 -5.796875 C 4.078125 -5.640625 4.3125 -5.425781 4.46875 -5.15625 C 4.625 -4.894531 4.703125 -4.597656 4.703125 -4.265625 C 4.703125 -3.847656 4.582031 -3.476562 4.34375 -3.15625 C 4.101562 -2.84375 3.742188 -2.632812 3.265625 -2.53125 L 4.78125 0 Z M 1.453125 -3.09375 L 2.609375 -3.09375 C 3.035156 -3.09375 3.351562 -3.195312 3.5625 -3.40625 C 3.78125 -3.625 3.890625 -3.910156 3.890625 -4.265625 C 3.890625 -4.617188 3.785156 -4.894531 3.578125 -5.09375 C 3.367188 -5.289062 3.046875 -5.390625 2.609375 -5.390625 L 1.453125 -5.390625 Z M 1.453125 -3.09375 "/></g></g></g><g fill="#ffffff" fill-opacity="1"><g transform="translate(78.405739, 21.22618)"><g><path d="M 0.375 -3.015625 C 0.375 -3.609375 0.503906 -4.140625 0.765625 -4.609375 C 1.035156 -5.078125 1.398438 -5.441406 1.859375 -5.703125 C 2.316406 -5.972656 2.828125 -6.109375 3.390625 -6.109375 C 4.046875 -6.109375 4.617188 -5.945312 5.109375 -5.625 C 5.597656 -5.3125 5.957031 -4.863281 6.1875 -4.28125 L 5.234375 -4.28125 C 5.066406 -4.644531 4.828125 -4.925781 4.515625 -5.125 C 4.203125 -5.320312 3.828125 -5.421875 3.390625 -5.421875 C 2.960938 -5.421875 2.582031 -5.320312 2.25 -5.125 C 1.914062 -4.925781 1.648438 -4.644531 1.453125 -4.28125 C 1.265625 -3.925781 1.171875 -3.503906 1.171875 -3.015625 C 1.171875 -2.535156 1.265625 -2.113281 1.453125 -1.75 C 1.648438 -1.394531 1.914062 -1.117188 2.25 -0.921875 C 2.582031 -0.722656 2.960938 -0.625 3.390625 -0.625 C 3.828125 -0.625 4.203125 -0.722656 4.515625 -0.921875 C 4.828125 -1.117188 5.066406 -1.394531 5.234375 -1.75 L 6.1875 -1.75 C 5.957031 -1.175781 5.597656 -0.734375 5.109375 -0.421875 C 4.617188 -0.109375 4.046875 0.046875 3.390625 0.046875 C 2.828125 0.046875 2.316406 -0.0820312 1.859375 -0.34375 C 1.398438 -0.601562 1.035156 -0.96875 0.765625 -1.4375 C 0.503906 -1.90625 0.375 -2.429688 0.375 -3.015625 Z M 0.375 -3.015625 "/></g></g></g><g fill="#ffffff" fill-opacity="1"><g transform="translate(85.091894, 21.22618)"><g><path d="M 1.453125 -6.03125 L 1.453125 0 L 0.671875 0 L 0.671875 -6.03125 Z M 1.453125 -6.03125 "/></g></g></g><g fill="#ffffff" fill-opacity="1"><g transform="translate(87.222459, 21.22618)"><g><path d="M 4.234375 -1.34375 L 1.59375 -1.34375 L 1.109375 0 L 0.28125 0 L 2.46875 -6 L 3.375 -6 L 5.546875 0 L 4.71875 0 Z M 4.015625 -1.984375 L 2.921875 -5.03125 L 1.828125 -1.984375 Z M 4.015625 -1.984375 "/></g></g></g><g fill="#ffffff" fill-opacity="1"><g transform="translate(93.059852, 21.22618)"><g><path d="M 1.453125 -0.640625 L 3.5625 -0.640625 L 3.5625 0 L 0.671875 0 L 0.671875 -6.03125 L 1.453125 -6.03125 Z M 1.453125 -0.640625 "/></g></g></g><g fill="#ffcf00" fill-opacity="1"><g transform="translate(98.717452, 21.631357)"><g><path d="M 0.203125 -2.46875 C 0.203125 -2.945312 0.300781 -3.375 0.5 -3.75 C 0.695312 -4.132812 0.976562 -4.429688 1.34375 -4.640625 C 1.707031 -4.847656 2.140625 -4.953125 2.640625 -4.953125 C 3.066406 -4.953125 3.445312 -4.875 3.78125 -4.71875 C 4.113281 -4.5625 4.382812 -4.335938 4.59375 -4.046875 C 4.800781 -3.753906 4.941406 -3.414062 5.015625 -3.03125 L 3.390625 -3.03125 C 3.316406 -3.1875 3.210938 -3.304688 3.078125 -3.390625 C 2.941406 -3.484375 2.785156 -3.53125 2.609375 -3.53125 C 2.347656 -3.53125 2.140625 -3.429688 1.984375 -3.234375 C 1.835938 -3.046875 1.765625 -2.789062 1.765625 -2.46875 C 1.765625 -2.132812 1.835938 -1.867188 1.984375 -1.671875 C 2.140625 -1.484375 2.347656 -1.390625 2.609375 -1.390625 C 2.785156 -1.390625 2.941406 -1.429688 3.078125 -1.515625 C 3.210938 -1.609375 3.316406 -1.738281 3.390625 -1.90625 L 5.015625 -1.90625 C 4.941406 -1.507812 4.800781 -1.164062 4.59375 -0.875 C 4.382812 -0.582031 4.113281 -0.359375 3.78125 -0.203125 C 3.445312 -0.046875 3.066406 0.03125 2.640625 0.03125 C 2.140625 0.03125 1.707031 -0.0703125 1.34375 -0.28125 C 0.976562 -0.488281 0.695312 -0.78125 0.5 -1.15625 C 0.300781 -1.539062 0.203125 -1.976562 0.203125 -2.46875 Z M 0.203125 -2.46875 "/></g></g></g><g fill="#ffcf00" fill-opacity="1"><g transform="translate(103.946179, 21.631357)"><g><path d="M 1.890625 -1.171875 L 3.375 -1.171875 L 3.375 0 L 0.34375 0 L 0.34375 -4.90625 L 1.890625 -4.90625 Z M 1.890625 -1.171875 "/></g></g></g><g fill="#ffcf00" fill-opacity="1"><g transform="translate(107.459772, 21.631357)"><g><path d="M 1.859375 -4.90625 L 1.859375 -2.140625 C 1.859375 -1.910156 1.90625 -1.726562 2 -1.59375 C 2.101562 -1.46875 2.265625 -1.40625 2.484375 -1.40625 C 2.703125 -1.40625 2.863281 -1.46875 2.96875 -1.59375 C 3.082031 -1.726562 3.140625 -1.910156 3.140625 -2.140625 L 3.140625 -4.90625 L 4.671875 -4.90625 L 4.671875 -2.140625 C 4.671875 -1.671875 4.570312 -1.269531 4.375 -0.9375 C 4.1875 -0.613281 3.921875 -0.367188 3.578125 -0.203125 C 3.242188 -0.0351562 2.867188 0.046875 2.453125 0.046875 C 2.035156 0.046875 1.664062 -0.0351562 1.34375 -0.203125 C 1.019531 -0.367188 0.765625 -0.613281 0.578125 -0.9375 C 0.398438 -1.269531 0.3125 -1.671875 0.3125 -2.140625 L 0.3125 -4.90625 Z M 1.859375 -4.90625 "/></g></g></g><g fill="#ffcf00" fill-opacity="1"><g transform="translate(112.452407, 21.631357)"><g><path d="M 3.640625 -2.515625 C 3.929688 -2.453125 4.160156 -2.3125 4.328125 -2.09375 C 4.492188 -1.875 4.578125 -1.625 4.578125 -1.34375 C 4.578125 -0.914062 4.429688 -0.582031 4.140625 -0.34375 C 3.859375 -0.113281 3.453125 0 2.921875 0 L 0.34375 0 L 0.34375 -4.90625 L 2.84375 -4.90625 C 3.34375 -4.90625 3.734375 -4.796875 4.015625 -4.578125 C 4.304688 -4.367188 4.453125 -4.054688 4.453125 -3.640625 C 4.453125 -3.347656 4.378906 -3.101562 4.234375 -2.90625 C 4.085938 -2.707031 3.890625 -2.578125 3.640625 -2.515625 Z M 1.890625 -3 L 2.484375 -3 C 2.617188 -3 2.71875 -3.023438 2.78125 -3.078125 C 2.851562 -3.128906 2.890625 -3.21875 2.890625 -3.34375 C 2.890625 -3.457031 2.851562 -3.539062 2.78125 -3.59375 C 2.71875 -3.65625 2.617188 -3.6875 2.484375 -3.6875 L 1.890625 -3.6875 Z M 2.59375 -1.234375 C 2.726562 -1.234375 2.828125 -1.257812 2.890625 -1.3125 C 2.960938 -1.363281 3 -1.453125 3 -1.578125 C 3 -1.804688 2.863281 -1.921875 2.59375 -1.921875 L 1.890625 -1.921875 L 1.890625 -1.234375 Z M 2.59375 -1.234375 "/></g></g></g><g fill="#ffcf00" fill-opacity="1"><g transform="translate(117.202006, 21.631357)"><g><path d="M 1.890625 -3.6875 L 1.890625 -3.078125 L 3.40625 -3.078125 L 3.40625 -1.921875 L 1.890625 -1.921875 L 1.890625 -1.234375 L 3.625 -1.234375 L 3.625 0 L 0.34375 0 L 0.34375 -4.90625 L 3.625 -4.90625 L 3.625 -3.6875 Z M 1.890625 -3.6875 "/></g></g></g><path stroke-linecap="butt" transform="matrix(0.725806, 0, 0, 0.725806, 47.020632, 24.92803)" fill="none" stroke-linejoin="miter" d="M -0.00151716 0.497423 L 107.599699 0.497423 " stroke="#ffcf00" stroke-width="1" stroke-opacity="1" stroke-miterlimit="4"/></svg>