<svg xmlns="http://www.w3.org/2000/svg" xmlns:xlink="http://www.w3.org/1999/xlink" width="109" zoomAndPan="magnify" viewBox="0 0 81.75 48.75" height="65" preserveAspectRatio="xMidYMid meet" version="1.0"><defs><g/><clipPath id="d66bad5307"><path d="M 1.210938 1 L 80.699219 1 L 80.699219 47.195312 L 1.210938 47.195312 Z M 1.210938 1 " clip-rule="nonzero"/></clipPath><clipPath id="bbfa9cf2d4"><path d="M 3.628906 1.15625 L 78.320312 1.15625 C 79.558594 1.15625 80.558594 2.160156 80.558594 3.394531 L 80.558594 44.957031 C 80.558594 46.191406 79.558594 47.195312 78.320312 47.195312 L 3.628906 47.195312 C 2.390625 47.195312 1.390625 46.191406 1.390625 44.957031 L 1.390625 3.394531 C 1.390625 2.160156 2.390625 1.15625 3.628906 1.15625 Z M 3.628906 1.15625 " clip-rule="nonzero"/></clipPath><clipPath id="8df53e722f"><path d="M 0.0859375 36 L 81.417969 36 L 81.417969 48.5 L 0.0859375 48.5 Z M 0.0859375 36 " clip-rule="nonzero"/></clipPath><clipPath id="76ff5300c2"><path d="M 11.378906 7 L 54 7 L 54 34.878906 L 11.378906 34.878906 Z M 11.378906 7 " clip-rule="nonzero"/></clipPath><clipPath id="cb9ddcdf44"><path d="M 11.378906 6.523438 L 59.878906 6.523438 L 59.878906 34.878906 L 11.378906 34.878906 Z M 11.378906 6.523438 " clip-rule="nonzero"/></clipPath></defs><g clip-path="url(#d66bad5307)"><g clip-path="url(#bbfa9cf2d4)"><path fill="#004aad" d="M 1.390625 1.15625 L 80.519531 1.15625 L 80.519531 47.195312 L 1.390625 47.195312 Z M 1.390625 1.15625 " fill-opacity="1" fill-rule="nonzero"/></g></g><path stroke-linecap="round" transform="matrix(0.746173, 0, 0, 0.746173, 5.555864, 3.30091)" fill="none" stroke-linejoin="miter" d="M 0.998316 0.99972 L 93.391588 0.99972 " stroke="#ffcf00" stroke-width="2" stroke-opacity="1" stroke-miterlimit="4"/><path stroke-linecap="round" transform="matrix(0, -0.746173, 0.746173, 0, 74.661996, 45.028007)" fill="none" stroke-linejoin="miter" d="M 1.000782 0.997427 L 55.01072 0.997427 " stroke="#ffcf00" stroke-width="2" stroke-opacity="1" stroke-miterlimit="4"/><g clip-path="url(#8df53e722f)"><path stroke-linecap="round" transform="matrix(0.746167, -0.00315528, 0.00315528, 0.746167, 5.403475, 44.006473)" fill="none" stroke-linejoin="miter" d="M 0.99939 1.000689 L 93.592425 0.9996 " stroke="#ffcf00" stroke-width="2" stroke-opacity="1" stroke-miterlimit="4"/></g><path stroke-linecap="round" transform="matrix(0, -0.746173, 0.746173, 0, 5.341406, 45.029788)" fill="none" stroke-linejoin="miter" d="M 0.997934 0.9978 L 10.944516 0.9978 " stroke="#ffcf00" stroke-width="2" stroke-opacity="1" stroke-miterlimit="4"/><g clip-path="url(#76ff5300c2)"><path fill="#ffffff" d="M 53.347656 9.589844 L 47.746094 12.898438 C 47.382812 12.835938 47.003906 12.808594 46.625 12.808594 C 44.648438 12.808594 42.710938 13.652344 41.226562 15.011719 C 40.332031 15.828125 39.605469 16.847656 39.125 17.980469 L 33.273438 21.457031 C 33.261719 21.304688 33.261719 21.140625 33.261719 20.988281 C 33.261719 19.53125 33.511719 18.109375 33.964844 16.773438 C 35.777344 11.464844 40.863281 7.523438 46.675781 7.523438 C 49.09375 7.5625 51.292969 8.242188 53.347656 9.589844 Z M 29.046875 17.957031 L 24.113281 7.410156 L 23.949219 7.410156 L 11.378906 34.390625 L 19.21875 29.761719 L 20.839844 26.210938 L 24.0625 19.175781 L 26.832031 25.269531 L 31.234375 22.664062 Z M 29.046875 17.957031 " fill-opacity="1" fill-rule="nonzero"/></g><g clip-path="url(#cb9ddcdf44)"><path fill="#ffcf00" d="M 39.089844 20.410156 C 39.039062 20.761719 39.011719 21.117188 39.011719 21.46875 C 39.011719 26.074219 43.113281 29.621094 47.105469 29.621094 C 49.484375 29.621094 51.535156 28.351562 53.246094 26.675781 L 56.226562 30.878906 C 53.949219 33.144531 51.179688 34.84375 47.269531 34.84375 C 42.410156 34.84375 38.144531 32.238281 35.765625 28.414062 C 34.898438 27.03125 34.292969 25.480469 33.980469 23.847656 L 32.519531 24.828125 L 34.105469 28.210938 L 37.199219 34.84375 L 31.460938 34.84375 L 29.800781 31.171875 L 28.226562 27.695312 L 17.59375 34.832031 L 11.867188 34.832031 L 19.707031 30.203125 L 27.320312 25.707031 L 31.726562 23.105469 L 33.765625 21.894531 L 39.628906 18.433594 L 48.238281 13.351562 L 53.835938 10.042969 L 59.738281 6.554688 L 54.1875 10.28125 C 54.882812 10.769531 55.5625 11.324219 56.226562 11.964844 L 53.234375 16.054688 C 52.074219 14.925781 50.765625 14.066406 49.371094 13.628906 C 49.332031 13.613281 49.292969 13.601562 49.257812 13.589844 Z M 39.089844 20.410156 " fill-opacity="1" fill-rule="nonzero"/></g><g fill="#ffffff" fill-opacity="1"><g transform="translate(13.523212, 42.761362)"><g><path d="M 0.203125 -2.375 C 0.203125 -2.84375 0.296875 -3.257812 0.484375 -3.625 C 0.671875 -3.988281 0.941406 -4.269531 1.296875 -4.46875 C 1.648438 -4.675781 2.066406 -4.78125 2.546875 -4.78125 C 2.953125 -4.78125 3.316406 -4.703125 3.640625 -4.546875 C 3.960938 -4.390625 4.222656 -4.171875 4.421875 -3.890625 C 4.628906 -3.617188 4.765625 -3.296875 4.828125 -2.921875 L 3.265625 -2.921875 C 3.191406 -3.078125 3.085938 -3.195312 2.953125 -3.28125 C 2.828125 -3.363281 2.679688 -3.40625 2.515625 -3.40625 C 2.265625 -3.40625 2.066406 -3.3125 1.921875 -3.125 C 1.773438 -2.9375 1.703125 -2.6875 1.703125 -2.375 C 1.703125 -2.0625 1.773438 -1.8125 1.921875 -1.625 C 2.066406 -1.4375 2.265625 -1.34375 2.515625 -1.34375 C 2.679688 -1.34375 2.828125 -1.382812 2.953125 -1.46875 C 3.085938 -1.550781 3.191406 -1.671875 3.265625 -1.828125 L 4.828125 -1.828125 C 4.765625 -1.453125 4.628906 -1.125 4.421875 -0.84375 C 4.222656 -0.5625 3.960938 -0.34375 3.640625 -0.1875 C 3.316406 -0.0390625 2.953125 0.03125 2.546875 0.03125 C 2.066406 0.03125 1.648438 -0.0664062 1.296875 -0.265625 C 0.941406 -0.472656 0.671875 -0.757812 0.484375 -1.125 C 0.296875 -1.488281 0.203125 -1.90625 0.203125 -2.375 Z M 0.203125 -2.375 "/></g></g></g><g fill="#ffffff" fill-opacity="1"><g transform="translate(18.561697, 42.761362)"><g><path d="M 1.8125 -1.125 L 3.25 -1.125 L 3.25 0 L 0.328125 0 L 0.328125 -4.734375 L 1.8125 -4.734375 Z M 1.8125 -1.125 "/></g></g></g><g fill="#ffffff" fill-opacity="1"><g transform="translate(21.947451, 42.761362)"><g><path d="M 1.78125 -4.734375 L 1.78125 -2.0625 C 1.78125 -1.84375 1.828125 -1.671875 1.921875 -1.546875 C 2.023438 -1.421875 2.179688 -1.359375 2.390625 -1.359375 C 2.609375 -1.359375 2.765625 -1.421875 2.859375 -1.546875 C 2.960938 -1.671875 3.015625 -1.84375 3.015625 -2.0625 L 3.015625 -4.734375 L 4.5 -4.734375 L 4.5 -2.0625 C 4.5 -1.613281 4.40625 -1.226562 4.21875 -0.90625 C 4.03125 -0.59375 3.773438 -0.351562 3.453125 -0.1875 C 3.128906 -0.03125 2.765625 0.046875 2.359375 0.046875 C 1.960938 0.046875 1.609375 -0.03125 1.296875 -0.1875 C 0.984375 -0.351562 0.738281 -0.59375 0.5625 -0.90625 C 0.394531 -1.226562 0.3125 -1.613281 0.3125 -2.0625 L 0.3125 -4.734375 Z M 1.78125 -4.734375 "/></g></g></g><g fill="#ffffff" fill-opacity="1"><g transform="translate(26.758433, 42.761362)"><g><path d="M 3.5 -2.421875 C 3.789062 -2.359375 4.015625 -2.222656 4.171875 -2.015625 C 4.328125 -1.804688 4.40625 -1.566406 4.40625 -1.296875 C 4.40625 -0.878906 4.265625 -0.554688 3.984375 -0.328125 C 3.710938 -0.109375 3.320312 0 2.8125 0 L 0.328125 0 L 0.328125 -4.734375 L 2.75 -4.734375 C 3.226562 -4.734375 3.601562 -4.628906 3.875 -4.421875 C 4.15625 -4.210938 4.296875 -3.90625 4.296875 -3.5 C 4.296875 -3.226562 4.222656 -2.992188 4.078125 -2.796875 C 3.929688 -2.609375 3.738281 -2.484375 3.5 -2.421875 Z M 1.8125 -2.890625 L 2.390625 -2.890625 C 2.523438 -2.890625 2.625 -2.914062 2.6875 -2.96875 C 2.75 -3.019531 2.78125 -3.101562 2.78125 -3.21875 C 2.78125 -3.332031 2.75 -3.414062 2.6875 -3.46875 C 2.625 -3.53125 2.523438 -3.5625 2.390625 -3.5625 L 1.8125 -3.5625 Z M 2.5 -1.1875 C 2.625 -1.1875 2.71875 -1.210938 2.78125 -1.265625 C 2.851562 -1.316406 2.890625 -1.398438 2.890625 -1.515625 C 2.890625 -1.742188 2.757812 -1.859375 2.5 -1.859375 L 1.8125 -1.859375 L 1.8125 -1.1875 Z M 2.5 -1.1875 "/></g></g></g><g fill="#ffffff" fill-opacity="1"><g transform="translate(31.335223, 42.761362)"><g><path d="M 1.8125 -3.546875 L 1.8125 -2.96875 L 3.296875 -2.96875 L 3.296875 -1.859375 L 1.8125 -1.859375 L 1.8125 -1.1875 L 3.484375 -1.1875 L 3.484375 0 L 0.328125 0 L 0.328125 -4.734375 L 3.484375 -4.734375 L 3.484375 -3.546875 Z M 1.8125 -3.546875 "/></g></g></g><g fill="#ffffff" fill-opacity="1"><g transform="translate(37.397741, 42.312542)"><g><path d="M 1.15625 -3.84375 L 1.15625 0 L 0.28125 0 L 0.28125 -3.84375 Z M 1.15625 -3.84375 "/></g></g></g><g fill="#ffffff" fill-opacity="1"><g transform="translate(38.597259, 42.312542)"><g><path d="M 1.15625 -2.390625 L 1.15625 0 L 0.28125 0 L 0.28125 -3.84375 L 1.15625 -3.84375 L 2.6875 -1.453125 L 2.6875 -3.84375 L 3.5625 -3.84375 L 3.5625 0 L 2.6875 0 L 1.171875 -2.390625 Z M 1.15625 -2.390625 "/></g></g></g><g fill="#ffffff" fill-opacity="1"><g transform="translate(42.205111, 42.312542)"><g><path d="M 1.15625 -1.546875 L 1.15625 0 L 0.28125 0 L 0.28125 -3.84375 L 1.15625 -3.84375 L 1.15625 -2.3125 L 2.390625 -2.3125 L 2.390625 -3.84375 L 3.265625 -3.84375 L 3.265625 0 L 2.390625 0 L 2.390625 -1.546875 Z M 1.15625 -1.546875 "/></g></g></g><g fill="#ffffff" fill-opacity="1"><g transform="translate(45.515408, 42.312542)"><g><path d="M 2.234375 -3.84375 L 3.78125 0 L 2.84375 0 L 2.5625 -0.765625 L 1.09375 -0.765625 L 0.8125 0 L -0.125 0 L 1.421875 -3.84375 Z M 2.265625 -1.53125 L 1.828125 -2.65625 L 1.390625 -1.53125 Z M 2.265625 -1.53125 "/></g></g></g><g fill="#ffffff" fill-opacity="1"><g transform="translate(48.92799, 42.312542)"><g><path d="M 0.28125 -3.84375 L 1.6875 -3.84375 C 2.070312 -3.84375 2.382812 -3.738281 2.625 -3.53125 C 2.875 -3.332031 3 -3.039062 3 -2.65625 C 3 -2.269531 2.875 -1.96875 2.625 -1.75 C 2.382812 -1.53125 2.070312 -1.421875 1.6875 -1.421875 L 1.15625 -1.421875 L 1.15625 0 L 0.28125 0 Z M 1.15625 -2.125 L 1.40625 -2.125 C 1.59375 -2.125 1.75 -2.160156 1.875 -2.234375 C 2.007812 -2.316406 2.078125 -2.445312 2.078125 -2.625 C 2.078125 -2.8125 2.007812 -2.941406 1.875 -3.015625 C 1.75 -3.097656 1.59375 -3.140625 1.40625 -3.140625 L 1.15625 -3.140625 Z M 1.15625 -2.125 "/></g></g></g><g fill="#ffffff" fill-opacity="1"><g transform="translate(51.791955, 42.312542)"><g><path d="M 1.15625 -3.84375 L 1.15625 0 L 0.28125 0 L 0.28125 -3.84375 Z M 1.15625 -3.84375 "/></g></g></g><g fill="#ffffff" fill-opacity="1"><g transform="translate(52.991473, 42.312542)"><g><path d="M 3.453125 0 L 3.265625 -2.28125 L 3.25 -2.28125 L 2.46875 -0.015625 L 1.9375 -0.015625 L 1.15625 -2.28125 L 1.125 -2.28125 L 0.953125 0 L 0.078125 0 L 0.421875 -3.84375 L 1.34375 -3.84375 L 2.203125 -1.625 L 3.046875 -3.84375 L 3.984375 -3.84375 L 4.328125 0 Z M 3.453125 0 "/></g></g></g><g fill="#ffffff" fill-opacity="1"><g transform="translate(57.15724, 42.312542)"><g><path d="M 0.28125 -1.703125 L 1.78125 -1.703125 L 1.78125 -0.984375 L 0.28125 -0.984375 Z M 0.28125 -1.703125 "/></g></g></g><g fill="#ffffff" fill-opacity="1"><g transform="translate(58.979764, 42.312542)"><g><path d="M 3.453125 0 L 3.265625 -2.28125 L 3.25 -2.28125 L 2.46875 -0.015625 L 1.9375 -0.015625 L 1.15625 -2.28125 L 1.125 -2.28125 L 0.953125 0 L 0.078125 0 L 0.421875 -3.84375 L 1.34375 -3.84375 L 2.203125 -1.625 L 3.046875 -3.84375 L 3.984375 -3.84375 L 4.328125 0 Z M 3.453125 0 "/></g></g></g><g fill="#ffffff" fill-opacity="1"><g transform="translate(63.145532, 42.312542)"><g><path d="M 3.75 -2.15625 L 3.75 -1.3125 C 3.65625 -0.863281 3.4375 -0.519531 3.09375 -0.28125 C 2.757812 -0.0507812 2.390625 0.0625 1.984375 0.0625 C 1.460938 0.0625 1.019531 -0.128906 0.65625 -0.515625 C 0.289062 -0.898438 0.109375 -1.367188 0.109375 -1.921875 C 0.109375 -2.472656 0.285156 -2.941406 0.640625 -3.328125 C 0.992188 -3.710938 1.441406 -3.90625 1.984375 -3.90625 C 2.609375 -3.90625 3.097656 -3.6875 3.453125 -3.25 L 2.890625 -2.625 C 2.679688 -2.957031 2.394531 -3.125 2.03125 -3.125 C 1.757812 -3.125 1.523438 -3.003906 1.328125 -2.765625 C 1.140625 -2.535156 1.046875 -2.253906 1.046875 -1.921875 C 1.046875 -1.585938 1.140625 -1.304688 1.328125 -1.078125 C 1.523438 -0.847656 1.757812 -0.734375 2.03125 -0.734375 C 2.25 -0.734375 2.441406 -0.800781 2.609375 -0.9375 C 2.773438 -1.070312 2.859375 -1.25 2.859375 -1.46875 L 1.984375 -1.46875 L 1.984375 -2.15625 Z M 3.75 -2.15625 "/></g></g></g></svg>